<svg id="_レイヤー_2" xmlns="http://www.w3.org/2000/svg" viewBox="0 0 784.13 216.51"><defs><style>.cls-1{fill:#fff;stroke-width:0}</style></defs><g id="_レイヤー_1-2"><path class="cls-1" d="M194.48 126.57c1.92 0 3.02.69 3.02 1.74 0 1.83-1.65 2.36-2.38 2.38-3.1.09-5.18.08-8.28.09-2.77.01-2.62.6-2.62 3.27 0 1.81.03.87 0 2.68-.02 1.51.59 3.16 1.89 3.93 3.96 2.32 6.54 4 10.01 6.7.9.7 1.9 2.5 1.19 3.68-.96 1.57-1.67 3.28-2.61 4.86-.74 1.23-3.39.21-4.3-.66-1.03-.98-4.5-4.51-5.3-5.27-.39-.37-.76-.07-.85.15-.35 1.33-.85 2.58-2.09 4.19-2.67 2.63-3.36 3.13-7.25 3.92-5.93 1.21-11.65.86-16.82-2.78-5.96-4.2-4.52-12.27 1.16-15.62 4.17-2.46 6.11-2.84 12.06-2.84 2.38 0 2.98-.87 2.98-2.7 0-1.92.32-3.39-2.2-3.39-4.62 0-6.46-.18-11.08-.09-1.02.02-3.85.53-4.88.39-2.66-.37-3.15-3.68-.3-4.58.73-.23 3.2-.2 3.95-.2 3.37 0 3.84.14 6.91.14 6.35 0 7.62.97 7.62-2.7 0-1.1.06-.23.06-1.47 0-2.23-2.64-2.52-4.38-2.52-3.23 0-6.28-.18-8.37.04-2.4.25-4.62.89-6.42-.04-1.42-.73-1.28-3.02-.96-3.75.47-1.08 1.65-1.36 2.7-1.36 3.7 0 4.22-.1 7.92-.1h7.03c1.4 0 2.45-.22 2.45-2.05-.03-1.52-.05-5.3 2.3-5.3 1.65 0 4.33-.16 5.95.05.54.07 1.31 1.01 1.38 1.62.2 1.63.11 1.75.07 3.39 0 1.69 1.06 2.51 1.92 2.7 2.33.52 5.83.19 8.49-.08 2.05-.21 3.2.54 3.16 2.19 0 1.6-.92 2.53-3.34 2.53-3.71 0-3.72.16-7.48.16-2.01 0-2.55 1.02-2.54 2.66 0 .7.03.2-.01 1.7-.04 1.48.86 2.52 2.4 2.48 1.67 0 6.12-.09 7.86-.09zm-20.36 22.19c0-1.01-.07-2.74-.07-3.74 0-1.07-1-2.02-1.36-2.25-1.97-1.22-5.2-.3-6.1 1.88-.59 1.44-.65 3.25-.48 4.84.14 1.25.47 2.57 1.29 3.5 1.72 1.94 4.78 1.57 5.95-.79.59-1.36.77-2.02.77-3.45zm-123.43.63c-.2-.28-.37-1.09-.15-1.35.81-.94 2.75-.63 3.32-.31 5.56 3.08 13.81 3.27 18.72 1.7 2.86-.91 4.87-2.58 6.09-5.5 1.44-3.27-.52-10.34-6.09-10.47-2.83-.32-6.46-.07-8.47.76-2.8 1.15-3.4 2.33-5.13 3.9-1.43 1.3-3.2 1.41-5.08.77-1.94-.66-2.59-1.3-3.85-2-1.61-.91-2.93-3.03-1.48-4.28 5.03-4.34 10.15-8.43 15.18-12.76 2.14-1.84 3.6-3.34 5.76-5.04.95-.74.98-1.64-.26-1.7-.65-.03-12.74.06-17.72.12-.78 0-1.42-.61-1.44-1.38-.01-.6-.13-1.25.2-1.74s1.46-.58 2.24-.58c8.71-.04 17.42-.04 26.13 0 1.16 0 2.36.26 3.48.5 2.49.53 3.21 4.39 1.64 6.16-2.34 2.63-3.48 3.33-6.87 6.35-1.72 1.53-3.11 3.37-5.07 5.26-.3.29-.11.81.31.83 1.56.07 4 .16 6.66.46 4.56.51 9.85 2.99 11.94 7.43 1.98 4.21 1.81 8.33-.99 12.1-3.55 4.78-8.58 7.1-14.33 7.77-8.55 1.01-16.66.84-23.34-5.3-.28-.26-.93-1.05-1.4-1.69zM36.52 138.2c.31 0 .49.3.43.6-.25 1.21-.49 1.98-.84 2.97-1.72 5-3.88 8.95-8.74 11.62-3.95 2.17-8.22 2.75-12.59 2.56-3.07-.14-6.19-.49-8.9-2.24-4.03-2.6-5.48-6.62-5.75-11.12-.21-3.42-.08-6.86-.08-10.29 0-7.78.05-15.04-.04-22.83-.03-2.06.72-2.67 2.86-2.4 1.07.13 2.16.19 3.22.04 2.34-.31 3.18.31 3.17 2.38-.07 10.29-.08 18.79.01 29.08.02 1.92.26 4.01 1.04 5.72 1.38 3.02 4.56 3.23 7.34 3.33 3.7.16 9.76-1.64 14.34-7.58.12-.16.78-.95 1.26-1.5.23-.26.55-.4.89-.39.57.02 1.77.02 2.38.04zm96.53 19.01c-1.15.71-4.07.35-4.94-.69-1.1-1.32-2.1-2.43-3.29-3.99-5.54-7.22-10.17-11.92-18.2-16.12-1.15-.6-3.58-1.81-4.51-2.69-2.08-1.97-2.13-5.48.23-7.11 2.56-1.77 5.87-3.52 8.61-5.11 6.56-3.81 9.8-6.25 13.94-13.13.43-.72 1.17-1.2 2-1.25 2.83-.19 6.61-.04 9.45 0 1.4.02 2.41 1.96 1.47 3.47-4 6.43-8.61 9.44-15.75 13.01-5.04 2.52-10.44 4.4-13.22 5.34-.4.13-2.07.61-1.98 1.71-.03.52 1.03.99 1.84 1.13 3.27.55 10.75 4.14 17.15 7.16 5.37 2.53 9.08 5.29 12.83 10.05 1.39 1.47.88 3.51-.69 4.77-1.73 1.39-2.98 2.26-4.94 3.47zm459.56-15.71c-.64-.32-.65-1.42-.01-1.74 1.74-.89 4.77-2.89 6.37-4.34.79-.79 3.11-2.42 3.11-6.08-.05-2.32.83-4.33-2.69-4.33-4.62 0-5.95-.07-10.57 0-.74.01-1.36.64-1.36 1.38-.07 8.25-.02 13.18.06 21.43.02 1.97 1.67 3.39 4.03 3.63 1.64.17 3.29.18 4.94.18 6.2.02 9.1 0 15.31.02 1.76 0 2.18.71 2.18 2.14 0 .9-1.45 1.4-2.09 1.41-9.5.04-16.84.07-26.34-.08-3.32-.05-6.48-1-8.02-4.39-.52-1.15-.72-2.53-.73-3.81-.07-7.19-.16-12.32-.06-19.51.03-1.94-1.69-2.71-2.67-2.71-2.14 0-2.75.03-4.53.03-.54 0-2.56.11-3.16-.76-.43-.62-.43-2.21.89-2.54.78-.19 1.87-.23 2.53-.26 2.03-.08 2.53-.16 4.69-.39 1.19-.12 2.1-.65 2.1-2.98v-3.24c0-1.36-.01-2.02-.01-3.26-.06-1.59 1.69-2.47 3.53-2.47 1.15 0 1.28-.02 2.56-.02 3.11 0 4.79.35 4.79 3.12 0 3.04.06 2.29-.04 5.32-.07 2.12.55 3.73 3.55 3.73 4.71 0 5.23.07 9.95.07 1.98 0 6.22-.16 8.22.07 3.34.39 6.01 3.04 4.98 7.19-1.31 4.22-4.42 8.08-9.6 11.12-2.9 1.59-4.69 2.36-7.26 2.63-1.31.14-3.25.14-4.63-.55zm126.38-23.34c-.1-2.59-2.1-4.01-4.56-5.02-3.05-1.24-4.71-1.8-14.86-1.24-2.3 0-3.8.48-3.8-2.93.13-1.59-1.06-2.95-2.92-2.6-1.48.28-3.9.24-5.39.03-3.35-.47-3.39 1.48-3.58 4.15-.32 4.33.1 7.41-.71 11.65-.71 2.54-.71 4.12-4.68 8.32-.37.24-1.93 1.35-2.22 2.22-.32.95-.95 3.88 3.41 2.77 3.92-1.86 5.29-2.22 7.77-5.79 1.27-1.82 2.87-.93 4.12.32 2.94 2.94 2.82 3.58 3.8 7.69.47 1.98 3.94 2.03 5.71.87.7-.46 1.22-.84 1.82-1.28-.11.25-.23.49-.39.73-4.58 6.75-8.45 11.73-16.48 13.95-.49.13-1.37.99-2.06 1.64-.42.4-.63.98-.55 1.57.02.13.04.26.05.4.09.67.64 1.18 1.32 1.23.6.04 1.2.06 1.75-.09 3.6-.99 7.24-1.93 10.73-3.25 5.6-2.12 9.83-4.39 13.56-9.1 5.89-7.43 8.52-16.89 8.16-26.23zm-14.5 11.73c-.06 0-.1.02-.15.03-.15-.19-.31-.39-.49-.58-1.43-1.19-4.52-3.88-9.27-5.86-1.66-.32-1.58-1.1-.87-2.46.22-.43.43-.86.61-1.29.26-.63.79-1.05 1.34-1.45 1.45-1.02 3.91-2.25 5.71-3.05.38-.17 1.05-.15 1.42.05.9.47 4.17 2.73 4.21 4.49.11 4.61-.84 10.04-2.51 10.12zm-193.54 10.49c.09-.54 2.01-1.34 2.5-1.56 3.12-1.29 6.09-2.58 10.17-5.13 5.49-3.43 9.68-7 13.91-11.51.61-.75 1.83-1.83 1.11-3.03-.62-.98-1.61-1.29-4.37-.71-7.84 1.64-8.25-1.56-13.29-.4-2.57.59-3.52 1.34-5.04 1.47-.69.06-1.83-.04-2.41-.76-1.53-1.88.8-4.37 3.66-4.37 3.83 0 2.95-.04 6.78.01 1.74.02 4.33-.45 4.33-2.99 0-1.84-.03-1.36 0-3.21 0-2.19 2.04-2.48 3.35-2.48 5.27 0 6.8-.55 6.8 4.16s-.69 4.46 4.44 4.54c2.56.04 2.44.24 4.97.6 3.23.46 5.82 2.37 4.62 6.38-2.75 5.59-7.7 9.53-10.63 11.07-.56.29-.18.69.19.75 1.17.17 3.07.08 3.75.13 4.2.36 5.11.83 8.47 3.52.8.64 1.54 1.35 2.32 2.11 1.1 1.08 1.32 3.44.58 4.8-1.07 1.95-3.42 4.18-5.79 3.98-.84-.07-1.63-.46-2.26-1.02a58.18 58.18 0 01-4.03-3.99c-1.83-2.03-2.12-2.61-4.06-4.55-1.03-1.03-2.36-1.03-2.59.26-.09.51-.12 1.16-.12 1.75 0 6.4-.05 8.45.03 14.85.02 1.68-2.04 2.85-3.83 2.83-5.12-.04-6.2.16-6.2-5.01v-9.92c0-.17 0-.42-.01-.72-.04-1.51-.82-3.37-3.56-1.99-3.06 1.53-6.01 2.49-12.04 2.11-.37-.02-1.01-.29-1.33-.47-.67-.36-.66-1.15-.4-1.52zm-31.85 11.57c-6.6 0-9.73.22-16.32.33-1.95.03-4.86.22-7.71.22-.69.07-1.84-.28-2.46-.95-.69-.76-.7-2.22.73-3.07.84-.5 1.95-.5 3.85-.48 5.21.06 5.68.13 10.89.23 3.07 0 4.05-1.23 4.05-5-.06-9.9-.02-13.03-.03-22.93 0-2.57-1.25-4.08-3.85-4.16-3.63-.11-4.75.11-8.04 1.01-2.07.56-4.71-.11-4.91-2.29 0-2.23 3.42-2.71 5.53-2.46 4.13.5 16.71.14 27.14.11 3.41-.01 7.36-.75 9.56-.75 3.47 0 3.95 4.38-2.8 4.38-4.62 0-7.58.11-9.38.11-2.32 0-2.95 2.29-2.95 4.52-.02 9.9 0 12.31-.02 22.21 0 3.27.4 4.93 2.89 4.93h8.2c3.16 0 4.17-1.06 5.73-1.06 2.85 0 2.55 2.86 2.29 3.63-.17.5-.84 1.45-3.08 1.45h-19.3zm149.03-7.22c11.2-2.94 25.73-7.94 36.62-19.43 1.24-1.3 2.82-1.6 3.21-.38 0 .01.71 2.37-2.18 6.77-3.85 5.77-9 11.61-17.1 16.14-4.55 2.56-5.74 2.97-10.51 5.15-1.43.65-2.55 1.18-4.26 1.79-2.03.72-5.29.21-5.91-1.51-.7-1.29-1.32-2.9-1.93-4.6-.59-1.66.34-3.47 2.05-3.92zm-2.08-31.59c.11-.77.76-1.34 1.54-1.39 1.68-.12 3.54-.08 5.36.43 3.99 1.13 7.61 2.32 10.58 5.43.56.59 3.04 2.98 1.74 5.7-.13.28-.35.5-.59.68-1.21.87-2.66 1.74-3.89 2.54-1.72 1.12-4.74 1.1-5.7-1.1-.89-2.03-2.64-4.52-3.98-6.18-1.82-2.25-2.69-2.81-4.54-4.62-.36-.35-.58-.86-.52-1.37 0-.04.01-.09.02-.13zm-239.5 17.35c1.05-.24 2.45-.52 3.23-.67 3.23-.62 9.03-1.49 12.24-2.2 3.42-.75 5.27-1.11 7.33-1.65 1.74-.46 1.77-1.16 1-1.67-1.74-1.15-4.97-3.04-4.85-3.92.19-1.31 4.15-1.16 4.15-2.56 0-4.15.02-5.13.02-9.44 0-1.76.45-2.09 1.61-2.08 2.04.02 5.86.26 7.91.2 1.85-.06 1.61.86 1.61 3.74v6.03c0 .52-.01.83.1 1.22.18.62.72 1.07 1.36 1.17.69.1 1.9-.22 2.83-.78 1.22-.74 1.93-.97 3.12-2.16.16-1.71-1.55-3.34-1.75-5.35-.05-.5.22-1 .67-1.2 1.58-.73 3.28.19 4.37.69 2.52 1.46 5.2 3.31 8.4 7.58.89 1.19.59 2.83.16 3.47-1.04 1.55-2.89 1.44-4.44 2.75-.22.14-2.56 1.01-5.59.02-6.14 4.49-12.27 5.95-14.21 6.41-.56.13-.28 1.06.3 1.06h10.5c2.31 0 4.62-.06 6.92.08 3.01.18 4.4 1.69 4.42 4.72.04 7.06 0 11.99.04 19.05.01 1.59-.66 2.03-2.15 2.03-13.26-.03-27.74-.17-40.99-.11-1.78 0-2.26-.69-2.24-2.35.06-6.79-.04-13.44.07-20.23.03-1.96-.73-1.87-2.08-2.04-.66-.08-3.93.18-4.62.11-.96-.06-1.86-1.31.55-1.92zm29.31 7.97c3.23 0 5.2.02 8.43-.02.62 0 1.83-.5 1.83-1.6 0-1.2-.89-1.93-3.45-1.93-4.88 0-3.44-.08-8.32 0-1.51.02-5.37.1-7.69.1-1.47 0-2.51.73-2.51 1.78 0 1.26 1.26 1.67 2.41 1.67h9.31zm0 7.74c3.23 0 5.2.02 8.43-.02.62 0 1.83-.5 1.83-1.6 0-1.2-.89-1.93-3.45-1.93-4.88 0-3.44-.08-8.32 0-1.51.02-5.37.1-7.69.1-1.47 0-2.51.73-2.51 1.78 0 1.26 1.26 1.67 2.41 1.67h9.31zm0 7.22c3.23 0 5.2.02 8.43-.02.62 0 1.83-.5 1.83-1.6 0-1.2-.83-1.93-3.45-1.93-4.88 0-3.44-.08-8.32 0-1.51.02-5.37.1-7.69.1-1.47 0-2.51.73-2.51 1.78 0 1.26 1.26 1.67 2.41 1.67h9.31z"/><path class="cls-1" d="M400.5 108.62h.79c4.85-.09 4.4 1.21 2.97 5.5-.92 3.69-4.16 6.85-8.03 9.38-.71.33-2.33 1.77-3.87 1.66-.81-.06-1.32-.54-1.72-1.1-.26-.36-.37-.8-.33-1.24.05-.48.09-.98.33-1.31.69-.97 1.35-1.96 1.63-3.12.74-3.1.67-4.67.8-6.32 0-3.27 1.34-3.45 5.06-3.45h2.37zm369.62 20.15l-23.88.12c-.21 0-.43-.01-.64-.04-.97-.14-4.12-.56-6.92-.45-3.36.12-5.35 1.74-5.35 3.61s1.12 4.23 3.74 4.23 2.99-.75 16.19-.75h26.02s5.1-.62 4.86-3.86c-.25-3.24-2.49-3.36-4.61-3.36-1.92 0-7.94.41-9.04.49-.12 0-.23.01-.35.01zM302 54.07c-.4.99-1.16 1.33-2.2 1.4 1.04-.07 1.79-.41 2.2-1.4.51.07 1.24-.38 1.6-.9-.36.52-1.09.97-1.6.9zm1.08 162.36l-.15-.06.15.06zm.08.02l.15.06c.03-.09.05-.18.08-.27-.03.09-.06.18-.08.27l-.15-.06zm-82.6-90.79c.02-.07.05-.13.09-.2-.03.07-.06.13-.09.2zm.11.99a1.02 1.02 0 01-.1-.99c-.11.31-.13.64.1.99-.23.29-.34.45-.32.64-.02-.19.08-.35.32-.64zm62.5 83.35s.03-.07.04-.1c.04-.02.07-.05.1-.04-.03 0-.07.03-.1.04-.02.04-.05.08-.04.11z"/><path class="cls-1" d="M367.71 143.19c-.26-.54-.23-1.04-.32-1.56-.06-.33-.11-.66-.17-.99-.03-.14-.12-.27-.14-.41-.09-.54-.05-1.13-.29-1.6-.24-.49-.29-1.01-.4-1.5-.13-.61-.11-1.21-.8-1.53-.2-.09-.31-.38-.43-.6-.34-.62-.67-1.24-1-1.86-.12-.22-.29-.42-.34-.66-.22-1.12.08-2.3-.47-3.41-.26-.52-.19-1.2-.38-1.78-.21-.63-.63-1.2-.8-1.84-.21-.8-.2-1.65-.41-2.45-.22-.84-.09-1.75-.54-2.54-.03-.05-.06-.13-.04-.16.35-.5-.14-.78-.3-1.14-.18-.43-.34-.86-.5-1.3-.54-2.68-.25-5.48-.96-8.02.09-.36.23-.61.21-.85-.04-.6-.1-1.2-.24-1.78-.11-.46-.22-1.04-.54-1.29-.45-.35-.58-.83-.69-1.25-.19-.68-.13-1.44-.24-2.15-.09-.57-.27-1.13-.44-1.79.16-.25-.1-2.55-.31-2.77.07-.47.18-.85.16-1.23-.02-.45-.2-.9-.21-1.35 0-.68.11-1.37.14-2.05.02-.38-.05-.76-.08-1.13.04-.26.05-.55.13-.82.23-.77-.42-1.45-.18-2.23.05-.17-.25-.46-.19-.63.25-.65-.08-1.02-.6-1.37.48-.38.36-.75.04-1.13-.07-.09-.17-.24-.14-.3.29-.68-.2-1.28-.19-1.93 0-.31-.2-.62-.32-.93-.11-.31-.23-.62-.35-.93-.05-.15.1-.37.05-.53-.12-.44-.32-.87-.49-1.29-.11-.29-.23-.57-.35-.85-.1-.23-.3-.49-.26-.7.08-.48-.09-.76-.45-1.03-.15-.11-.2-.37-.29-.57-.13-.3-.19-.64-.37-.91-.29-.43-.66-.82-.98-1.24-.05-.07-.06-.25-.02-.32.26-.38-.02-.66-.17-.95-.05-.11-.14-.2-.19-.31-.22-.56-.3-1.27-.69-1.64-.59-.57-.43-1.4-.97-1.95-.39-.4-.63-.95-.96-1.41-.16-.22-.6-.24-.43-.7.11-.28 0-.71.19-.89.43-.43.42-1.07.28-1.38-.27-.59-.4-1.25-.72-1.77-.32-.52-.63-1.01-.82-1.6-.17-.56-.39-1.12-.97-1.46-.21-.12-.29-.48-.43-.73-.12-.21-.21-.44-.36-.62-.31-.37-.64-.72-.98-1.1-.12.08-.24.16-.42.29-.48-.96-.93-1.88-1.38-2.8-.34-.7-.69-1.39-1.03-2.09-.16-.33-.34-.62-.11-1.03.39-.71.23-1.16-.33-1.6.03-.41.1-.74.05-1.04-.06-.34-.28-.66-.33-1-.05-.41-.22-.63-.61-.74-.12-.03-.33-.2-.32-.24.26-.74-.33-.77-.76-.94-.13-.05-.28-.15-.32-.27-.11-.37-.16-.75-.26-1.12-.18-.66-.39-1.29-1.07-1.64-.17-.09-.38-.27-.42-.44-.14-.59-.42-.89-.97-.68-.1-.36-.15-.69-.27-.99-.17-.41-.47-.78-.56-1.2-.1-.5-.15-.97-.55-1.11-.1-.46-.13-.81-.25-1.14-.17-.45-.43-.87-.61-1.32-.18-.45-.29-.92-.48-1.36-.13-.28-.54-.55-.5-.78.08-.54-.18-.7-.56-.78.01-.26.11-.51.02-.69-.41-.84-.86-1.66-1.31-2.47-.12-.21-.42-.36-.46-.57-.1-.54-.13-1.09-.8-1.28-.07-.02-.11-.2-.16-.31-.38-.89-.73-1.8-1.15-2.68-.4-.83-.88-1.61-1.31-2.43-.19-.36-.3-.77-.52-1.11-.15-.24-.62-.4-.62-.59 0-.46 0-.9-.17-1.34-.09-.24-.11-.5-.18-.75-.05-.16-.18-.3-.21-.47-.14-.77-.34-.93-1.09-.85-.26-.53-.44-1.16-1.33-1.18.24-.19.4-.29.53-.42.22-.22.54-.43.61-.7.17-.64.88-1.17.46-1.94-.01-.02.03-.07.03-.11.04-.35.19-.73.11-1.05-.33-1.28-.68-2.56-1.12-3.8-.18-.5-.61-.92-.94-1.37-.15-.21-.41-.36-.51-.59-.34-.74-.99-1.2-1.79-1.19-.44 0-.88.03-1.32.03-.31 0-.62 0-.92-.02-.71-.02-1.47-.28-1.97.5-.02.04-.11.03-.16.06-.24.16-.53.29-.72.51-.32.37-.58.8-.98 1.37-.28-.9-.51-1.63-.7-2.24-.24.2-.48.41-.69.59-.23-.29-.36-.51-.54-.67-.27-.24-.55-.47-.86-.65-.58-.34-.76-1.24-1.64-1.15-.04 0-.11-.07-.12-.11-.31-1-1.31-1.18-2.05-1.63-.52-.32-1.14-.5-1.74-.63-.55-.13-1.13-.12-1.76-.17-.48-.15-1.13-.2-1.58-.52-.46-.32-1.05-.03-1.48-.59-.28-.38-1.04-.4-1.6-.6-.14.06-.44.25-.5.2-.66-.65-1.49-.22-2.12-.15-.7.08-1.43.1-2.09.09-1.59-.04-3.11.14-4.65.52-1.57.38-3.17.72-4.77.84-1.38.1-2.78-.11-4.17-.21-.92-.07-1.84-.19-2.35-1.14-.47.11-.86.62-1.38.16-.39-.35-.62-.14-.77.28a.5.5 0 01-.28.29c-.84.33-1.67.65-1.87 1.69-.6-.14-1.48.53-1.63 1.06-1.5.93-2.87 1.77-4.19 2.58-.52-.31-1.3-.23-1.36-1.07-.3.33-.69.2-.92-.23-.31-.58-.59-1.17-.94-1.72-.53-.85-1.45-.97-2.31-.96-.6 0-1.28.2-1.79.53-.78.5-1.52 1.12-2.12 1.83-.48.56-.73 1.33-1.1 2-.27.49-.57.95-.87 1.43-.21.33-.37.73-.66.97-.48.4-.63.92-.76 1.48-.15.61-.24 1.25-.48 1.83-.46 1.12-.56 2.23-.21 3.39.09.3.14.61.27.89.23.49.54.94.76 1.42.17.37.4.78.38 1.16-.02.41-.99 1.04-1.34 1.08-.2.02-.45.09-.56.23-.35.44-.64.92-.95 1.38-.7 1.05-1.4 2.09-2.07 3.15-.16.25-.21.58-.28.88-.27 1.07-1.32 1.76-1.36 2.96-.02.64-.28 1.27-.43 1.91-.17.75-.39 1.5-.5 2.26-.08.52-.4.99-.43 1.44-.03.48-.25.8-.39 1.19-.12.32-.17.67-.28 1-.25.79-.5 1.57-.77 2.35-.2.57-.87 1.02-.43 1.76.03.06-.04.23-.12.3-1 .9-.87 2.16-1.05 3.32-.06.37 0 .77 0 1.29-1.71 3.78-3.97 7.51-4.72 11.84-.67-.12-.83.02-.88.59-.02.19 0 .44-.1.56-.58.62-.69 1.43-.9 2.19-.15.52-.18 1.08-.38 1.59-.32.82-.75 1.59-1.08 2.4-.47 1.15-.77 2.4-1.39 3.47-.83 1.42-1.35 3.05-2.61 4.2-.08.07-.12.2-.17.3-.36.75-.72 1.5-1.09 2.25-.3.62-.68 1.21-.88 1.87-.16.55-.85 1.01-.33 1.72-.92-.02-.69.8-.91 1.23-.34.66-.43 1.44-.62 2.17 0 .04-.04.06-.07.09-.57.74-.51 1.59-.45 2.43-.12.16-.29.3-.36.49-.29.8-.56 1.6-.8 2.41-.21.71-.11 1.49-.51 2.19-.26.44-.03 1.02-.33 1.56-.3.55-.27 1.28-.39 1.92-.09.53-.13 1.07-.27 1.58-.2.72-.49 1.41-.72 2.12-.08.26-.09.54-.15.81-.11.49-.31.97-.31 1.46 0 .46.19.91-.33 1.24-.1.06-.12.28-.13.43-.03.4.2.82-.22 1.18-.11.09 0 .4-.04.61-.04.3-.08.6-.17.89-.06.18-.26.32-.3.49-.17.84-.23 1.7-.56 2.52-.35.88-.22 1.89-.55 2.8-.04.12.05.3.1.44.03.09.14.19.12.25-.12.44-.31.86-.4 1.3-.06.31-.01.64-.01 1.05-.41.38-1.08 5.85-.7 6.38-.1.1-.24.19-.27.3-.18.59.15 1.27-.33 1.81v.06c0 .26.03.52-.03.76-.11.45-.32.87-.41 1.32-.15.72-.49 1.31-.88 1.93-.09.14-.19.29-.27.46-.03.07-.06.13-.09.2-.11.31-.13.64.1.99-.23.29-.34.45-.32.64.02.15.11.31.26.58.07.11.09.25.09.38.04.74.24 1.53.06 2.22-.18.68-.07 1.19.25 1.64-.8 1.51-1.73 2.9-.54 4.54-.69.47-.76.69-.52 1.66-.15.17-.35.31-.41.49-.26.79-.45 1.6-.71 2.39-.11.34-.37.63-.16 1.03.03.06-.11.27-.22.36-.4.35-.62.71-.12 1.14-.35.32-.48.64-.23 1.05.05.08.02.2.02.3-.01.29-.09.6-.04.87.2.96.45 1.91.66 2.88.2.97.55 1.84 1.12 2.68.41.6.97.96 1.51 1.11.44.12.56.35.86.64-.77.14-.71.69-.6 1.14.08.32.42.58.64.87.1.04.06.16.06.27.01.57-.11 1.21.09 1.7.26.63.75 1.18 1.21 1.71.49.57.68 1.26 1 1.9.33.67.8 1.26 1.29 2.01.09-1.02.13-1.84.23-2.64.12-.89-.13-1.84.41-2.66.05-.08 0-.28-.07-.38-.3-.41-.32-.83-.08-1.3.3.28.57.56.87.8.11.09.89.8.94.93.28.72.22 1.59.99 2.08.07.04.09.23.07.33-.26.96.45 1.52.94 2.12.39.48.96.81 1.43 1.24.64.58 1.25 1.17 1.96 1.84.04-.24.06-.31.05-.38 0-.11-.03-.23-.06-.34-.34-1.25-.28-2.53-.34-3.8-.03-.56.15-1.2-.54-1.5.28-.76.41-.78 1.46-.26-.05.61.7 1.7 1.36 1.96-.08.19-.15.38-.23.58.74.77 1.1 1.91 2.39 2.24-.21-1.93-1.09-3.67-.87-5.61.23.14.44.27.61.38-.05.84.39 1.45.85 2.06l.21.3c.21.34.38.73.65 1.01.21.22.64.24.82.46.42.52.94.57 1.51.43.68-.18 1.01-.69 1.13-1.34.06-.31.16-.81.02-.92-.37-.29-.26-.65-.37-.97-.22-.63-.43-1.33-.87-1.78-.48-.49-.43-1.04-.62-1.58.15.06.29.13.35.25.22.42.32.98.65 1.24.43.34.57.75.73 1.2.14.42.3.83.46 1.24.22.58.63 1.07.55 1.77-.03.29.29.62.48.97.01.17.01.43.06.69.08.4.18.8.31 1.18.2.59.38 1.2.92 1.61.29.22.8.4.84.65.12.77.84.69 1.24 1.03.28.23.81.34 1.18.27.85-.17 1.44.4 1.97.77.51.35.69 1.14 1.18 1.67.69.75 1.36 1.46 2.25 1.98.41.24.76.61 1.06.98.4.5.7 1.07 1.08 1.59.24.33.53.63.82.92.49.51.99 1.01 1.51 1.49.4.37.85.7 1.25 1.07.47.44.89.91 1.36 1.35.21.2.49.32.7.51.64.6 1.26 1.22 1.89 1.83.42.41.88.79 1.27 1.22.17.19.16.55.33.71.48.45.61 1.21 1.29 1.48.04.01.05.1.07.16.24.49.49.97.72 1.46.23.48.59.96.63 1.46.08 1.1.94 1.58 1.55 2.25.24.27.78.41.84.68.16.74.12 1.53.2 2.3.03.33.24.65.22.96-.04.49-.15 1-.35 1.46-.22.51-.3.95.02 1.29-.14.34-.4.66-.33.86.22.67.3 1.3.03 1.96-.09.21-.14.47-.1.69.06.39-.23.74-.23.99.01.63-.36 1.14-.35 1.73 0 .09.04.2.1.26.32.37.47.71-.12.98-.07.03-.11.21-.1.31.07.55.15 1.1.25 1.75 0 0-.15.05-.21.15-.23.43-.58.86-.59 1.31-.02.64-.23 1.13-.52 1.66-.29.53-.59 1.11-.43 1.91.54-.46 1.02-.82 1.43-1.23.36-.36.62-.22.9.05.18.18.15.55.63.43.17-.04.54.35.68.62.24.46.37.98.53 1.43.58-.12 1.05-.22 1.52-.32.05-.01.11-.06.13-.11.14-.37.34-.47.7-.25.25.15.55.2.79.35.13.08.31.34.28.4-.31.48.11.76.3 1.06.07.11.47.16.57.07.62-.54.86-1.28 1.02-1.99.58-.17 1.18-.35 1.78-.53.5-.15.99-.34 1.49-.47.63-.17 1.3-.24 1.9-.47.9-.34.96-.56.65-1.43 0-.03.03-.07.04-.11.03-.02.07-.05.1-.04.9.08 1.05-.09 1.07-1.03 0-.32.11-.7.31-.95.51-.64.79-1.3.52-2.11-.02-.06 0-.19.05-.21.51-.24.41-.63.41-1.11 0-1.07.4-2.11.28-3.22-.07-.64.1-1.3.13-1.96.03-.7 0-1.4 0-2.09.04-1.34 0-2.69.47-3.98.23-.64.7-.79 1.25-.3.22.2.38.49.63.62.26.14.6.13.9.19.23.04.52.17.68.08.4-.22.81-.49 1.07-.84.27-.35.55-.48.96-.52.53-.06.94.2 1.39.37.39.14.33.41.33.7-.01.71-.06 1.42 0 2.13.03.42.25.82.36 1.24.09.35.1.72.23 1.06.27.71.84 1.41.85 2.11 0 1.01.79 1.88.4 2.92-.03.07.02.23.08.27.42.27.33.62.21.99-.03.11-.02.24 0 .35.09.48.03.98.49 1.38.16.14.06.65.46.73.69.13.9.8 1.12 1.24.29.59.55.94 1.03.89.28.36.48.61.68.87.15.2.47.46.42.58-.21.52.16.91.18 1.3.06.84.56 1.41.85 2.11.11.26.41.44.56.69.38.63.7 1.28 1.09 1.9.03.05.09.09.16.12l.15.06c.03 0 .05.02.08.03l.15.06c.03-.09.05-.18.08-.27.03-.09.05-.18.07-.27.19-.97-.1-1.98.32-2.96.28-.65-.22-1.37.14-2.14.18-.4.47-.55.65-.91.75 1.51 1.49 2.25 2.94 2.94.32.15.75.08 1.29.12-.69-1.44-1.78-2.28-2.63-3.34.13-.19.26-.55.39-.55.73.01.6-.63.76-.99.29-.66-.4-1.66-1.12-1.8-.49-.09-.95-.57-1.45-.03-.02.02-.1-.05-.16-.05-.49.02-1.01-.03-1.48.1-.89.25-1.7.47-2.28-.55-.11-.19-.47-.24-.74-.36-.19-.48-.41-1.05-.69-1.74h1.67c.46 0 .87-.03.97-.63.02-.11.27-.28.38-.26.85.17 1.42-.6 2.25-.59.71.01 1.43-.24 2.14-.37.17-.03.34-.05.49-.13.24-.12.46-.28.75-.47.17.52.18 1.08.42 1.2.52.27.48.78.63 1.14.36.83.17 1.86.88 2.59.02.02-.02.11-.03.17-.1.44.17.58.53.68.19.06.43.15.52.3.51.89 1.28.9 1.91.08.54-.71.83-1.44.63-2.32-.07-.3-.15-.59-.23-.88-.03 0-.07 0-.1-.01 0-.24.09-.55-.02-.72-.27-.41-.64-.76-.96-1.15-.29-.35-.91-.51-.66-1.18.03-.08-.09-.24-.15-.35-.27-.47-.53-.93-.81-1.39-.06-.09-.15-.16-.22-.25-.08-.1-.2-.21-.22-.32-.06-.7-.07-1.4-.16-2.09-.04-.33-.24-.63-.35-.95-.04-.11-.03-.24-.04-.36 0-.18-.02-.37 0-.55.06-.53-.05-1.21.24-1.54.54-.62.73-1.32.9-2.05.09-.4.02-.87.21-1.2.32-.54.81-.98 1.21-1.47a7.65 7.65 0 011.66-1.5c.11-.07.13-.29.24-.35.75-.37 1.52-.7 2.26-1.08.43-.22.8-.75 1.21-.76.93-.02 1.39-.87 2.24-1.01.43-.07.8-.5 1.22-.74.35-.2.7-.39 1.07-.55.83-.35 1.8-.28 2.56-.84.73-.53 1.44-1.1 2.15-1.65.07-.06.09-.17.15-.25.1-.14.19-.29.33-.39.51-.36 1.04-.7 1.02-1.26.41-.32.74-.54 1.02-.81s.47-.67.79-.87c1.14-.72 1.59-1.96 2.29-3 .3-.44.46-.98.78-1.41.39-.52.89-.95 1.3-1.45.17-.21.22-.51.33-.77.39-.39.87-.78 1.24-1.25.16-.21.11-.59.16-.89.35-.25.61-.58.9-.88.65-.68.53-1.75 1.25-2.39.06-.06 0-.3-.06-.43-.13-.29-.13-.48.23-.62.19-.07.38-.3.46-.5.27-.68.48-1.37.72-2.06.16-.47.33-.94.5-1.41.09-.26.19-.51.28-.77.1-.3.13-.64.3-.88.54-.74.66-1.6.79-2.46.01-.09.07-.17.12-.25.33-.55.52-1.1.15-1.71-.25-.41-.09-.74.41-1.03.44-.26.59.09.76.37.24.41.43.86.71 1.24.42.57.89 1.11 1.32 1.64-.09.19-.28.38-.25.55.08.63.18 1.23.16 1.88-.02.6.16 1.21.01 1.82-.11.44.54 1.49.97 1.57.06.01.14.03.17 0 .24-.24.67-.14.82-.27.42-.38.79-.88 1.03-1.4.1-.22-.16-.6-.27-.97.85-.25.28-.83.18-1.29.41.11.82.22 1.29.35v1.96c0 .96.3 1.84.92 2.55.23.26.72.3 1.09.43.62.22 1.08 0 1.31-.64.15-.42.12-.93.62-1.18.07-.04.11-.17.13-.26.06-.51.14-1.03.15-1.54 0-.77-.04-1.54-.06-2.37.28-.02.66-.06 1.04-.09-.29.35-.38.61-.09.95.06.07 0 .24-.03.37-.15.87.09 1.58.67 2.26.32.37.42.92.59 1.4.16.44.29.9.43 1.34h.18c.09-.16.2-.31.26-.48.15-.43.24-.89.41-1.31.27-.67.74-1.31.85-2 .13-.79.05-1.65-.11-2.45-.13-.65-.49-.75-1.16-.57-.1.03-.22-.02-.26-.03.3-.29.55-.59.86-.8.27-.18.62-.34.93-.33.54.01 1.08.16 1.72.27.04.26.07.62.14.97.05.26.06.58.21.76.3.35.22.7.17 1.08-.04.3-.14.7 0 .9.43.6.17 1.41.75 2.01.45.47.55 1.25.9 1.84.13.23.49.72.79.4.47-.5.86-1.12 1.08-1.77.11-.32.1-.62.4-.87.48-.4.83-.96.73-1.58-.11-.67-.09-1.31.03-1.97.03-.17.15-.35.12-.5-.18-.9-.05-1.87-.55-2.72-.14-.23-.01-.62-.15-.84-.26-.42-.63-.77-.96-1.14.38-.55 1.4-.55 1.64-1.46 0-.03.06-.06.09-.06.77.04.89-.61 1.17-1.1.23-.42.41-.95.77-1.2.56-.39.66-.84.63-1.44-.02-.48-.34-1.02.1-1.45.69-.68.29-1.51.03-2.06zM239.8 122.16c-.08.44-.64 1.11.2 1.6-1.12.33-.69 1.24-.84 1.93-.01.06.07.19.05.21-.67.45-.32 1.27-.66 1.84-.02.03-.05.07-.05.11.2 1.03-.38 1.95-.43 2.94-.05.96-.13 1.91-.21 2.87-.04.44-.17.89-.11 1.31.06.44.3.85.44 1.28.04.12.07.3 0 .39-.34.48-.27.96-.12 1.49.11.39.05.83.11 1.24.09.66.21 1.32.32 1.97.12.7.24 1.41.35 2.11.15.91.34 1.81.42 2.72.07.77.06 1.56-.01 2.34-.08.81-.18 1.65-.44 2.42-.19.55-.65 1.01-1 1.51-.02.03-.07.03-.1.06-.25.25-.09 1.54.22 1.74.08.05.18.1.23.18.08.13.13.28.19.43-.15.02-.31.05-.46.05-.33 0-.65 0-.98.08-.68-.46-2.14-.58-2.53-.14-.46-.18-.94-.3-1.35-.53-.44-.24-.82-.6-1.24-.88-.2-.13-.48-.29-.67-.23-.56.16-1.07.46-1.63.63-.32.1-.7.12-1.04.08-.62-.06-1.23-.18-1.84-.29-.13-.02-.29-.09-.36-.18-.48-.72-1.36-.84-1.94-1.36-.4-.35-.9-.66-.87-1.44.03-.87-.29-1.75-.51-2.62-.05-.2-.27-.35-.43-.55.19-.59 0-1.24-.59-1.73.32-.31.49-.61.3-1.13-.12-.33.22-.81.16-1.2-.14-.88.01-1.74.18-2.58.16-.78.57-1.51.79-2.28.18-.62.59-1.05.96-1.56.6-.82 1.03-1.83.49-2.92-.17-.34-.16-.6.29-.78.34-.13.58-.42.53-.87-.08-.62.22-1.28-.2-1.87-.03-.05-.04-.15-.01-.19.46-.65.25-1.3 0-1.95-.15-.38-.25-.7-.03-1.15.18-.37.08-.9 0-1.35-.17-1.02-.39-2.04-.6-3.06-.04-.19-.13-.36-.19-.54-.04-.13-.11-.26-.11-.39 0-.52 0-1.05.05-1.57.05-.57.15-1.14.2-1.72.02-.2-.06-.4-.09-.62.07-.36.2-.76.22-1.17.03-.96.3-1.86.63-2.75.16-.45.21-.94.33-1.4.02-.1.12-.19.14-.29.1-.39.24-.77.27-1.16.04-.57.3-1 .64-1.45.28-.39.48-.88.57-1.36.16-.82.68-1.51.83-2.3.1-.53.59-1.02.25-1.61 0-.02-.03-.04-.02-.05l.63-1.74c.16-.45.35-.9.47-1.36.18-.73.41-1.47.43-2.21.02-.64.43-1.08.55-1.64.01-.06.06-.13.04-.16-.33-.6.13-1 .32-1.48.11-.3.02-.68.04-1.02.01-.19.08-.37.13-.55.08-.28.16-.56.23-.84.12-.46.26-.92.34-1.38.04-.24-.04-.49-.07-.8.44-.24.39-.72.5-1.18.19-.76.15-1.56.47-2.32.19-.46-.04-1.08-.08-1.77.42-.27.64-.79.39-1.48-.03-.09-.04-.25 0-.28.59-.42.24-1.07.4-1.6.24-.76.47-1.53.68-2.3.13-.49.1-1.08.37-1.48.38-.58.04-1.39.69-1.87.14-.1.13-.4.2-.6.33-.95.65-1.91 1.01-2.86.22-.59.52-1.15.75-1.73.23-.58.42-1.18.63-1.77.08-.22.16-.45.25-.67.36-.93.71-1.86 1.13-2.92.25.84.45 1.56.68 2.26.11.33.31.63.41.97.08.29.04.61.11.9.11.49.27.98.41 1.46.03.09.07.2.04.28-.26.79.31 1.23.74 1.84-.06.07-.18.21-.29.36-.19.27-.43.55-.03.85.06.05.11.19.09.25-.3.73.13 1.37.27 2.03.24 1.12.58 2.22.96 3.3.25.73.67 1.4.95 2.11.19.48.29 1.01.43 1.51.03.09.06.19.11.27.46.77.46 1.66.67 2.49.09.35.34.65.51.98.06.11.15.27.11.37-.28.75.02 1.45.09 2.17.06.7.37 1.18.61 1.75.05.11-.02.26-.03.39-.01.17-.06.36-.02.52.24.94.55 1.87.74 2.82.17.81.23 1.65.3 2.48.04.43.03.86 0 1.29-.03.63-.23.77-.88.78-.19 0-.48.11-.54.25-.24.55-.46 1.13-.56 1.72-.04.26.1.48-.22.72-.23.17-.29.56-.43.86-.29.59-.6 1.18-.87 1.78-.25.56-.25 1.12-.06 1.74.16.5-.12 1.01-.31 1.52-.35.95-.64 1.94-.79 2.94-.23 1.5-.71 2.89-1.27 4.29-.35.89-.56 1.87-.63 2.82-.07.92-.32 1.78-.49 2.66zm42.01 83.26c-.03.91-.07 1.81-.12 2.72-.02.26-.09.52-.13.78-.04.22-.07.44-.09.54-.74.36-1.42.79-2.16 1.02-.41.13-.6.24-.77.65-.12.29-.59.15-.94.12-.79-.06-1.55-.18-2.28-.47-.2-.08-.44-.05-.66-.07-.47-.21-.88-.45-1.54-.39-.61.06-1.26-.33-1.95-.54.2-.26.38-.49.56-.73.04-.05.11-.12.09-.14-.34-.59.28-.76.48-1.11.53-.91.69-1.88.55-2.93-.07-.51.12-1.06.19-1.59.04-.25.09-.49.11-.62.84.19 1.69.4 2.56.56.32.06.66-.02.99-.05.86-.06 1.62.36 2.45.45.09.01.2.07.28.05.48-.15.59.15.75.51.07.16.33.27.52.34.35.14.73.2 1.06.36.09.04.07.35.06.53zm60.26-74.08c-.06.82.05 1.65-.05 2.46-.07.54-.36 1.06-.58 1.57-.52 1.21-1.06 2.41-1.02 3.77 0 .17-.03.35.02.51.17.58.03 1.14-.06 1.71-.04.24.09.51.16.87-.19.55-.37 1.21.1 1.86.06.09.1.21.11.31.01.33 0 .65 0 1.05-1.09.26-.54 1.42-.91 2.15a5.72 5.72 0 00-.57 1.69c-.06.41.11.85.19 1.34-.67.06-.77.71-.96 1.38-.33 1.18-.79 2.32-1.16 3.49-.32 1.02-.74 2.05-.83 3.1-.07.77-.71 1.2-.75 1.94-.03.56-.24 1.11-.38 1.66-.03.14-.09.28-.17.4-.25.37-.63.69-.77 1.1-.35 1.01-.94 1.84-1.61 2.64-.13.16-.2.46-.15.66.11.39.04.49-.37.55-.85.11-1.01.35-1.04 1.17 0 .11-.2.3-.32.32-.55.08-.79.46-1.05.89-.76 1.23-1.57 2.43-2.39 3.62-.3.44-.69.82-.96 1.29-.17.16-.34.33-.53.46-.29.2-.64.33-.88.57-.73.72-1.41 1.5-2.13 2.23-.24.25-.56.42-.82.65-.28.24-.57.49-.81.78-.43.5-.83 1.03-1.18 1.47-.36.25-.67.43-.94.67-.39.34-.7.78-1.12 1.08-.27.19-.67.17-1.01.26-1.07.29-2.14.55-3 1.35-.4.38-.93.61-1.4.92-.12.08-.26.2-.29.32-.08.33-.23.39-.58.38-.31 0-.64.19-.94.34-.16.09-.25.39-.4.41-.7.08-1.04.65-1.53 1.01-.03.02-.09 0-.11.02-.4.45-.81.89-1.18 1.35-.27.33-.53.69-.74 1.06-.34.62-.63 1.26-1 2.02-.24.07-.59.25-.53.79.01.1-.16.21-.2.33-.06.19-.16.41-.12.59.16.67.36 1.33.59 1.98.05.14.32.24.51.29.34.09.48.15.25.54-.24.42-.33.92.2 1.27.05.03.07.11.09.18.13.52.25 1.04.39 1.62-.84.25-1.77.76-2.89.62-.54-.07-1.34-.05-1.63.28-.42.47-.88.41-1.33.58-.16.06-.25.29-.35.43-.81-.47-1.55-.34-2.38-.03-.03-.5-.11-.97-.09-1.44.05-1.16-.19-2.26-.44-3.39-.1-.44-.23-.96-.21-1.5.02-.69.28-1.57-.4-2.22-.17-.16-.12-.56-.15-.85-.05-.47-.23-.78-.78-.75-.15 0-.4-.01-.43-.09-.35-.82-.97-.45-1.42-.24-.61.29-1.21.14-1.73.01-1.04-.25-1.9-.07-2.78.61 0-.2-.01-.36 0-.51.03-.37-.03-.7-.37-.93-.08-.05-.17-.13-.18-.22-.2-.94-.93-1.17-1.71-1.13-1.01.05-2.08.07-2.84.89-.25.27-.33.7-.49 1.06-.02.04-.04.07-.06.1-.25.22-.68.4-.73.65-.07.41-.16.67-.56.84-.14.06-.27.3-.3.47-.1.59-.16 1.2-.22 1.8-.1 1.14-.22 2.28-.27 3.42-.03.77.09 1.54.07 2.31 0 .37-.19.73-.38.93-.42.1-.84.21-1.27.3-.1.02-.21 0-.32 0-.18 0-.45-.05-.51.04-.53.77-1.14.09-1.69.09-.94 0-1.79-.55-2.83-.37-.61.11-1.35-.32-1.96-.65-.14-.07 0-.72.07-1.08.06-.3.25-.58.31-.89.09-.48.17-.97.17-1.45 0-.62-.04-1.25-.11-1.87-.02-.15-.25-.28-.34-.37-.06-.65.14-1.27-.31-1.87-.23-.31-.26-.78-.37-1.14.26-.1.45-.17.64-.24-.26-.32-.51-.55-.67-.84-.12-.21-.13-.49-.22-.73-.07-.18-.19-.35-.31-.57.18-.57-.03-1.31-.56-1.77-.06-.05-.15-.1-.16-.16-.24-1.47-1.68-1.87-2.48-2.84a6.03 6.03 0 01-.6-.89c-.34-.58-.62-1.21-1.02-1.75-.18-.25-.56-.35-.92-.56-.01-.7-.52-1.19-1.32-1.6-.93-.47-1.84-1.04-2.46-1.95-.25-.36-.66-.61-1-.9-.04-.04-.14-.05-.14-.09-.15-.69-.87-.57-1.27-.9-.45-.37-.84-.8-1.3-1.16-.66-.52-1.09-1.22-1.54-1.9-.03-.04-.1-.06-.15-.09-.34-.19-.6-.4-.79-.81-.21-.44-.75-.71-1.15-1.06-.5-.44-1.17-.78-1.46-1.33-.26-.48-.75-.68-.96-1.17-.19-.44-.7-.61-1-1a6.084 6.084 0 00-1.65-1.51c-.49-.29-.72-.92-1.38-.99-.15-.02-.3-.3-.38-.5-.33-.78-.47-1.72-.98-2.34-.63-.76-.52-1.78-1.14-2.47-.17-.18-.4-.3-.56-.49-.17-.2-.31-.43-.41-.67-.12-.29-.25-.44-.6-.53-.27-.07-.64-.45-.66-.72-.07-.79-.71-1.2-1.02-1.81-.19-.37-.48-.7-.75-1.01-.23-.25-.51-.46-.84-.59-.09-.18-.19-.37-.28-.55-.03-.07-.09-.13-.11-.2-.13-.73-.28-1.46-.37-2.19-.11-.93-.16-1.86-.24-2.79-.06-.8-.12-1.6-.19-2.39-.1-1.19-.24-2.38-.29-3.57-.02-.6.07-1.23.19-1.82.15-.72.4-1.41.37-2.18-.01-.31.21-.64.36-.94.27-.55.17-1.02-.29-1.5 1.13-.13.94-1.02 1.05-1.7.16-1.02.25-2.06.37-3.08.01-.1.06-.21.03-.28-.32-.64.19-1.16.23-1.74.02-.37-.02-.75-.1-1.12.16-.64.95-1.16.34-2.01-.08-.11.09-.48.25-.64.26-.26.37-.44.24-.85-.17-.52-.4-1.12.18-1.6.09-.08.09-.31.08-.47-.02-.24-.07-.48-.12-.71-.07-.33-.15-.66-.26-1.16.36-.55.4-1.34.03-2.15-.02-.05-.06-.12-.04-.16.57-1.07.07-2.17.11-3.26.03-.66.16-1.31.3-1.96.23-1.08.5-2.15.74-3.22.03-.15-.07-.32-.06-.48.03-.64-.09-1.37.17-1.91.36-.76 1.03-1.36 1.53-2.07.38-.55.7-1.14 1.02-1.68.25.38 1.29.73 1.71.43.23-.17.44-.56.43-.84-.05-1.16-.17-2.32-.28-3.48-.06-.67-.14-1.33-.23-2-.11-.82-.14-1.68-.39-2.46-.18-.58.26-1.3-.41-1.74a.132.132 0 01-.03-.11c.21-1.11-.21-2.19-.15-3.29 0-.09-.05-.19-.09-.27-.28-.56-.41-1.17-.51-1.79-.04-.28.05-.58.04-.87-.03-.6-.04-1.2-.13-1.79-.13-.82-.32-1.63-.52-2.43-.16-.67-.36-1.32-.53-1.99-.12-.5-.2-1.01-.33-1.5-.07-.26-.22-.5-.31-.69-.14-.54-.28-1.03-.41-1.53-.11-.4-.17-.83-.33-1.21-.25-.59-.07-1.32-.6-1.81-.04-.04-.06-.16-.03-.22.18-.53.02-.84-.54-.96-.06-.01-.14-.31-.09-.43.16-.41.29-.76-.07-1.18-.16-.18-.1-.57-.14-.86-.02-.12 0-.24-.04-.35-.31-.84-.63-1.67-.93-2.52-.13-.37-.2-.77-.37-1.13-.09-.2-.33-.33-.57-.55.67-1.33 1.39-2.75 2.14-4.25.2.19.4.37.51.47.02.93-.4 1.83.44 2.54.09.07.1.24.14.36.31.97.76 1.87 1.42 2.65.06.07.02.21.04.31.21.88.42 1.76.64 2.64.05-.01.09-.03.14-.04-.02.18-.11.37-.06.53.2.72.46 1.42.66 2.14.15.53.14 1.13.38 1.61.43.88.5 1.93 1.28 2.65.78.73.91 1.77 1.16 2.72.31 1.21.56 2.45.79 3.68.15.81.21 1.63.33 2.45.13.9.34 1.79.42 2.69.05.56-.14 1.14-.12 1.71.03.75.12 1.49.26 2.23.05.28.25.6.47.77.77.56.27 1.17.1 1.74-.15.52-.04 1.01-.04 1.52 0 .82.55 1.27.93 1.83.31.46.65.88.67 1.46 0 .03.08.06.12.09.28.21.56.42.97.72.12-.1.34-.3.62-.54.26-.09.62-.22 1.09-.39.16.22.35.56.6.85.42.47.86.93 1.34 1.34.92.77 2.11 1.05 3.14 1.61.07.04.19 0 .27.03.24.09.5.16.72.29.23.13.42.32.65.5.04-.34.08-.59.13-.99.28.34.45.56.64.77.41.45 1.43.38 1.71-.15.06-.11-.05-.36-.14-.5-.15-.25-.37-.45-.52-.7-.04-.06.07-.21.09-.28-.52-.27-1.04-.59-1.6-.82-.61-.25-1.28-.35-1.88-.63-.6-.27-1.13-.69-1.69-1.02-.16-.09-.35-.12-.52-.2-.18-.09-.34-.22-.53-.3-.35-.15-.71-.27-1.02-.38.79-.37.93-1.2.28-1.88-.23-.24-.4-.55-.62-.81-.09-.11-.22-.25-.35-.28-.8-.16-1.28-.65-1.59-1.37-.05-.12-.14-.31-.23-.32-.52-.07-.75-.39-.9-.86-.17-.5-.48-.95-.61-1.45-.26-1.02-.45-2.07-.65-3.1-.09-.51-.12-1.02-.19-1.53-.22-1.51-.35-3.03-.69-4.51-.22-.94-.23-1.9-.47-2.83-.18-.7-.12-1.45-.24-2.17-.1-.59-.3-1.17-.45-1.75-.23-.86-.47-1.73-.7-2.59-.19-.7-.44-1.4-.53-2.12-.11-.82-.82-1.49-.52-2.42.07-.21-.23-.55-.34-.79.08-.93-.08-1.8-.47-2.62-.35-.73-.72-1.45-1.07-2.18-.02-.05.07-.15.08-.23.02-.11.08-.3.04-.33-.69-.47-.46-1.33-.82-1.92-.08-.13-.27-.2-.29-.32-.13-.48-.19-.99-.42-1.42-.24-.44-.62-.82-.99-1.18-.14-.14-.41-.16-.6-.27-.14-.08-.24-.22-.36-.34.1-.1.21-.19.3-.29.16-.17.38-.33.46-.54.59-1.51 1.12-3.05 1.72-4.55.33-.82.79-1.59 1.11-2.42.34-.88.64-1.78.85-2.69.33-1.41.55-2.85.86-4.27.1-.44.48-.86-.12-1.3.59-.29.78-.72.79-1.32 0-.4.22-.81.39-1.19.38-.91.8-1.8 1.18-2.71.09-.21.1-.45.15-.68.3-1.32.49-2.67.92-3.94.36-1.09.52-2.26 1.25-3.23.22-.29.34-.74.32-1.1-.09-1.34.31-2.56.81-3.75.32-.75.68-1.53 1.2-2.14.44-.52.93-1.1 1.69-1.29.33-.08.61-.38.91-.57-.07-.04-.14-.07-.2-.11.29-.02.75.07.85-.07.28-.44.76-.85.51-1.51-.1-.26-.04-.58-.04-.87 0-.3.04-.61.02-.91-.03-.45-.39-.86-.13-1.34.04-.07 0-.23-.05-.28-.7-.63-.59-1.61-.98-2.38-.24-.47-.47-1.08.02-1.69.26-.33.31-.87.34-1.32.08-1.07.93-1.67 1.65-1.96.65-.26 1.11-.74 1.71-.99.69-.28 1.39-.54 2.12-.7.2-.04.48.29.72.47.21.16.4.36.61.52.24.19.5.36.88.62.37-.15.55 0 .53.65-.01.74.36.91.96.5.28-.19.46-.22.72-.01.26.21.46.12.76-.07.49-.32 1.09-.48 1.66-.67.41-.14.84-.2 1.26-.32.45-.13.89-.32 1.34-.44.85-.21 1.55-.65 2.19-1.24.35-.32.56-.84 1.2-.86.22 0 .43-.47.57-.63.54-.35 1.11-.56 1.41-.96.5-.68 1.66 0 2.29-.13 1.27-.25 1.59-.3 2.89-.4 1.33-.1 2.66-.2 3.99-.29 1.15-.08 2.3-.2 3.45-.2 1.16 0 2.93-.94 4.09-.9.34.01.68-.14 1.02-.13.33 0 .65.17.98.17.59.01 1.17-.04 1.88-.07l.89.65c.45.33.92.64 1.35.99.52.41 1.02.85 1.52 1.29.29.25.54.54.82.81.08.08.19.16.29.17.39.06.68.15.95.53.22.3.76.37 1.18.51.64.22 1.18.7 1.9.71.08 0 .21.1.21.15.03.64.51.95.91 1.33.16.15.36.27.53.41.17.15.33.32.48.48.1.11.16.29.29.35.68.31 1.36.64 2.08.86.44.14.95.22 1.38.11.32-.08.56-.49.83-.76.77-.77 1.52-1.56 2.33-2.29.55-.5 1.83-.18 2.31.44.27.35.68.59 1 .91.22.23.48.5.56.79.21.74.48 1.5.45 2.25-.02.58-.44 1.15-.69 1.73-.06.14-.19.32-.14.41.31.56-.04 1.06-.1 1.58-.13 1.22-.08 2.43.59 3.48.22.35.52.76 1.08.82.28.03.53.3.81.43.27.13.56.2.84.32.13.06.3.15.36.27.53 1.06 1.03 2.14 1.56 3.21.42.86.9 1.69 1.29 2.56.29.64.43 1.34.72 1.97.49 1.06 1.04 2.1 1.57 3.15.41.8.84 1.6 1.27 2.4.64 1.18.63 2.55 1.1 3.78.21.56.13 1.26.42 1.75.39.63.4 1.36.74 2 .29.52.36 1.17.48 1.77.04.19-.12.41-.14.62-.04.31-.12.64-.04.92.11.37.35.71.55 1.05.26.43.59.83.8 1.29.29.63.6 1.28.71 1.95.07.38-.06.81.32 1.07.26.18.57.27.86.42.21.11.48.2.6.38.54.85 1.07 1.7 1.52 2.6.41.82.72 1.7 1.07 2.55.2.48.41.95.64 1.48.28-.03.57 0 .63.48.03.26.23.59.46.73.45.27.2.52.09.8-.44 1.1-.82 2.23-1.33 3.29-.39.81-.95 1.54-1.41 2.32-.1.17-.12.39-.23.53-.39.6-.82 1.18-1.17 1.81-.64 1.18-1.31 2.35-1.82 3.59-.22.52-.78.98-.55 1.66.02.05-.05.15-.1.2-.9.83-1.21 2.01-1.76 3.05-.14.26-.1.62-.16.99-.34.12-.88 1.07-.85 1.6 0 .12 0 .27-.07.36-.55.82-.79 1.73-.97 2.68-.08.42-.41.79-.57 1.2-.25.66-.48 1.32-.67 2-.16.57-.28 1.15-.38 1.73-.14.9-.23 1.81-.36 2.71-.06.42-.05.81-.59 1.1-.37.2-.51.91-.68 1.41-.19.55-.25 1.15-.44 1.7-.07.19-.35.37-.57.42-.63.17-1.3.22-1.92.42-.23.07-.34.47-.53.69-.14.16-.29.35-.47.42-.42.17-1.02.13-.81.8-.26.28-.46.57-.73.75-.38.25-.79.45-1.22.6-1.19.39-2.39.75-3.59 1.11-.25.07-.53.03-.77.11-.42.14-.98-.27-1.29.32-.02.05-.24 0-.37-.02-.38-.1-.66-.07-.93.31-.26.35-.69.57-1.03.84.68 1.25 1.31 1.49 2.59 1.33 1.16-.14 2.09-.62 2.88-1.45.06-.07.15-.14.24-.16 1.59-.35 3.07-1.15 4.76-1.24.48.58.67.58 1.25 0 .19-.2.39-.39.61-.61.73.52 1.36-.03 2.04-.2.02 0 .03-.04.04-.04.85.05 1.13-.68 1.55-1.19.12-.15.15-.55.03-.68-.25-.28-.33-.53-.3-.91.07-.89.14-1.73.7-2.5.42-.58.69-1.27.98-1.93.12-.27.08-.59.14-.89.08-.35.18-.69.29-1.03.21-.62.42-1.2.42-1.9 0-.61.35-1.23.54-1.85.05-.14.08-.29.13-.43.15-.38.32-.74.45-1.13.2-.6.37-1.21.55-1.81.22-.28.55-.57.72-.93.44-.93.81-1.89 1.21-2.84.41-.97.84-1.93 1.22-2.91.06-.14-.07-.35-.01-.47.26-.49.54-.98.79-1.48.36-.73.7-1.46 1.03-2.2.13-.29.18-.6.32-.88.09-.19.31-.31.41-.5.32-.59.61-1.2.93-1.79.37-.69.78-1.35 1.12-2.04.23-.47.37-.97.57-1.46.3-.73.62-1.46.91-2.2.15-.37.24-.77.38-1.15.06-.16.19-.29.27-.41.55 1.01 1.09 1.98 1.62 2.93-.36.47-.5.9-.27 1.43.14.32.19.64-.18.94-.19.15-.21.5-.36.9-.49.1-.61.69-.76 1.22-.26.91-.62 1.77-1.07 2.6-.04.07-.05.15-.06.23-.05.48-.15.92-.49 1.33-.22.26-.16.74-.29 1.09-.09.25-.33.44-.43.68-.12.3-.15.63-.22.95-.02.11-.06.21-.1.31-.02.05-.1.08-.12.13-.18.74-.84 1.31-.7 2.15.01.08-.08.18-.1.27-.07.23-.13.47-.21.79-.7.27-.99 1.47-.44 2.44-.55.02-.83.29-1.05.81-.32.75-.65 1.49-.85 2.29-.1.42-.45.75-.03 1.13-.36.42-.88.77-.99 1.22-.17.71-.56 1.32-.74 2.02-.11.45-.4.85-.55 1.29-.1.3-.1.64-.15.96-.03.17 0 .43-.1.49-.56.35-.82.84-.83 1.5 0 .14-.1.28-.16.42-.19.43-.38.85-.56 1.27-.09.21-.18.42-.22.64-.04.21-.11.53 0 .63.5.45.26.91.08 1.35-.3.75-.15 1.33.53 1.71.11.06.29.02.43-.02.6-.17.85 0 .84.6-.01.46.24.67.53.7.25.67.51 1.26.68 1.88.13.48.12 1 .23 1.49.18.83.4 1.65.61 2.47.02.07.05.15.05.22-.04.64-.04.64.38.98-.06.39-.54.87.22 1.17-.38.44-.17.83-.03 1.28.15.47.25.97.27 1.49.03.66.34 1.31.46 1.98.13.73.1 1.5.28 2.22.19.77.31 1.55.78 2.28.38.58.36 1.44.46 2.18.17 1.31.22 2.63.47 3.92.19.99.65 1.92.89 2.9.31 1.31.45 2.65.35 4.01zm22.66 11.75c-.07.54-.41 1.06-.7 1.55-.52.88-1.45 1.47-1.8 2.48-.04.12-.29.15-.35.27-.16.31-.31.63-.37.97-.16.82-.16 1.69-.43 2.47-.13.38-.71.61-1.08.91-.12.1-.29.2-.32.32-.08.41-.34.4-.66.38-.15-.01-.32.09-.47.17-.18.09-.35.2-.53.3-.03.02-.1 0-.11.01-.42.83-1.36.33-1.95.77-.31.23-.65.47-1.01.56-.72.18-1.47.25-2.21.38-.29.05-.57.14-.86.21-.11.03-.24.12-.33.1-.56-.17-1.17-.27-1.67-.56-.48-.28-.9-.5-1.45-.29-.09.03-.26.04-.3-.02-.66-.92-1.8-1.3-2.52-2.16-.24-.29-.59-.5-.25-.94.05-.06 0-.19 0-.29.04-.85.16-1.7.1-2.54-.06-.73-.33-1.44-.5-2.17-.04-.19 0-.4-.03-.6-.08-.39-.23-.76-.29-1.15-.1-.61-.14-1.23-.22-1.84-.06-.42-.31-.91-.18-1.25.35-.96.31-1.93.27-2.9-.02-.46-.02-.91-.26-1.4-.36-.73-.47-1.6-.66-2.41-.52-2.22-.45-4.51-.91-6.74-.22-1.06-.41-2.13-.54-3.2-.1-.8-.07-1.61-.11-2.41-.06-1.06-.15-2.12-.19-3.18-.02-.48.12-.97.06-1.43-.11-.76.08-1.52-.17-2.31-.21-.64-.02-1.4-.09-2.1-.09-.91-.27-1.82-.41-2.73-.01-.07-.06-.16-.04-.21.4-.63-.12-.86-.53-1.16.32-.34.69-.6.13-1.12-.24-.22-.08-.85-.13-1.29-.05-.39-.07-.8-.24-1.14-.32-.64-.13-1.46-.77-1.99-.13-.11-.07-.45-.1-.68q-.08-.65-.39-.88c-.05-.77-.1-1.41-.13-2.06 0-.15.09-.3.08-.44-.03-.37.04-.79-.44-.99-.13-.05-.23-.24-.29-.39-.26-.62-.39-.67-.99-.35-.06.03-.14.04-.07.02.08-.57.17-1.18.26-1.78 0-.06-.02-.15 0-.17.45-.36.38-.99.61-1.35.47-.74.6-1.46.61-2.27 0-.18.07-.41.19-.54.4-.39.46-.84.27-1.33.52-.35.88-1.35.78-1.98-.03-.19.04-.41.12-.59.23-.47.48-.92.73-1.38.13-.24.29-.46.37-.71.19-.6.33-1.22.54-1.98.39-.27.66-.89.13-1.84 1.08.09.79-.86 1.08-1.38.21-.38.38-.8.49-1.22.06-.23-.03-.51-.06-.8.48-.44 1.16-2.37 1.14-2.93.14-.37.27-.74.42-1.11l.69-1.71c.25-.59.52-1.16.75-1.75.05-.14-.05-.33-.05-.33.37-.49.68-.88 1.05-1.37.2.6.35 1.11.53 1.61.32.91.7 1.8.98 2.73.11.38-.02.84.53.95-.35.86.19 1.44.43 2.1.04.34.02.7.13 1.01.31.9.32 1.88.91 2.71.26.38.21.97.35 1.45.09.32.27.63.52.9-.05.17-.2.4-.14.52.43.87.34 1.85.59 2.75.02.06.04.13.08.15.67.38.42.97.4 1.54 0 .24.19.49.35.88-.28.59.62 4.45 1.11 4.81-.03.58-.09 1.05-.05 1.52.02.22.28.41.33.64.21 1.02.35 2.05.56 3.07.2 1 .43 1.99.69 2.97.05.21.28.38.39.59.07.14.11.32.09.48-.04.31-.21.62-.18.92.05.66.29 1.31-.09 1.95-.06.1.08.31.13.52-.79.36-.84.99-.67 1.82.16.78 0 1.63.14 2.43.13.81-.19 1.64.24 2.43.14.25-.08.69.03.98.35.91.27 1.85.33 2.79.05.81-.12 1.69.55 2.36-.15.66.63 1.09.42 1.81-.08.27.15.62.2.95.08.53.12 1.07.21 1.59s.24 1.02.34 1.54c.05.27.01.56.08.83.26.97.55 1.94.82 2.91.08.28.13.57.21.92-.64.56-.42 3.01.45 3.6-.19.51-.03.8.43 1.18.44.37 1.13.66 1.15 1.47.02.47.57.86 1.03.96-.02 1.08.04 1.16 1.1 1.53-.04.41-.04.69.46.99.56.34 1.07.96 1.12 1.74.05.8.15 1.62.04 2.41z"/><path class="cls-1" d="M309.78 208.23c-.11-.08-.37-.13-.45-.07-.15.12-.32.36-.29.52.05.3.17.63.37.85.79.82 1.7 1.49 2.76 1.92.41.17.84.28 1.26.41l.12-.24c-.71-.69-1.41-1.39-2.14-2.06-.52-.47-1.08-.91-1.64-1.33zm17.67-70.74c.01-.38-.03-.75-.12-1.12-.1-.39-.2-.79-.37-1.15-.27-.58.02-1.42-.78-1.77-.04-.02-.06-.1-.06-.15.03-.51-.3-.7-.68-.75-.06-.51-.12-.97-.18-1.47.36-.26.33-.61.22-1.07-.11-.44-.49-.83-.29-1.35.02-.06-.1-.16-.13-.25-.12-.42-.27-.83-.34-1.26-.06-.34-.01-.69-.01-1.03.12-.41.28-.85.18-1.22-.21-.79-.47-1.59-.86-2.3-.33-.6-.45-1.25-.72-1.86-.16-.36-.4-.69-.59-1.02-.09-.61-.09-1.28-.3-1.89-.32-.94-.75-1.84-1.17-2.74-.15-.31-.48-.54-.65-.84-.22-.4-.36-.84-.56-1.25-.23-.47-.72-.96-.68-1.4.08-.95-.89-1.26-1.02-2.04-.02-.09-.32-.13-.48-.22-.21-.12-.41-.25-.6-.39-.21-.17-.57-.37-.56-.54.04-.74-.52-1.16-.85-1.66-.41-.6-1.05-1-1.69-1.42-.77-.5-1.63-.69-2.38-1.16-.46-.28-.91-.57-1.34-.89-.84-.64-1.64-1.34-2.5-1.95-.58-.42-1.23-.76-1.85-1.12-.26-.14-.62-.16-.82-.35-.86-.82-1.99-.89-3.05-1.07-.93-.15-1.9 0-2.86-.03s-1.93-.12-2.89-.14c-.39 0-.79.09-1.18.14-.28-.13-.58-.21-.89-.24-.28-.03-.62.08-.85-.03-.49-.23-.99-.02-1.5-.16-.76-.21-1.64-.02-2.46.01-.23 0-.46.09-.69.1-.42.02-.86-.05-1.27.03-.51.1-1 .39-1.51.45-.72.07-1.46-.07-2.16.27-.18.09-.42.15-.61.11-.75-.16-1.34.14-1.84.5-.17-.1-.3-.23-.44-.24-.52-.05-.98.25-1.54.17-.43-.06-.91.23-1.37.36-.52.14-1.04.36-1.57.39-1.02.06-1.92.43-2.79.88-.62.32-1.2.71-1.77 1.12-.22.16-.34.47-.46.65-.21.08-.41.13-.58.23-.4.24-.78.51-1.17.77-.69.46-1.29 1.07-2.16 1.2-.07.01-.13.08-.19.13-.57.43-1.13.88-1.71 1.29-.31.22-.65.44-1.01.58-.6.23-1.24.34-1.83.59-.55.23-.79.96-1.5.96-.01 0-.03.03-.04.04-.42.52-.93.99-1.22 1.58-.27.56-1.08 1.02-.49 1.81-.41.28-.81.49-.77 1.08.02.32-.08.67-.2.97-.24.6-.57 1.16-.8 1.76-.13.35-.15.75-.22 1.12-.17.35-.26.73-.39 1.09-.12.36-.43.73-.37 1.05.1.54-.15.89-.38 1.29-.13.23-.26.5-.26.76 0 .54.07 1.09.13 1.63.02.19.19.38.16.55-.09.47-.3.92-.36 1.39-.08.56-.06 1.13-.07 1.7 0 .07.07.17.04.2-.36.44-.13.91-.07 1.37.08.62.17 1.25.28 1.87.09.51.2 1.02.33 1.52.04.15.18.27.28.4-.04 0-.07-.02-.11-.03l.34 1.49c-.5.1-1.1.29-.74 1.01-.23.22-.52.37-.55.57-.13.73-.22 1.47-.23 2.21 0 1.42.03 2.85.11 4.27.03.53.2 1.06.3 1.59.06.31.14.61.15.92.03.51 0 1.02.02 1.53.04.8.73 1.33.78 2.21.06.91.6 1.83 1.07 2.67.3.54.2 1.26.78 1.65-.22.58.22.74.59.93-.35.71.16 1.22.39 1.77.06.15.25.33.21.43-.2.51.16.8.38 1.15.17.27.3.56.42.86.05.13-.04.38.03.43.75.53.66 1.44 1.01 2.15.11.23.33.4.44.63.27.53.88.85.9 1.52 0 .04.08.08.12.12.42.45 1.18.55 1.33 1.29.02.1.29.18.45.21.43.06.85.1.9.68.01.11.2.23.33.31.43.23.97.36 1.3.69.77.79 1.71 1.11 2.75 1.29.4.07.59-.05.83-.35s.62-.47.9-.74c.19-.18.39-.44.41-.68.03-.24-.2-.49-.24-.75-.08-.59-.74-1.31-1.32-1.39-.11-.02-.3 0-.33-.07-.37-.69-1.14-.86-1.7-1.29-.79-.61-1.74-1-2.3-1.89-.06-.1-.25-.11-.35-.19-.15-.12-.34-.23-.42-.39-.38-.73-.67-1.51-1.09-2.2-.4-.66-.73-1.3-.86-2.08-.09-.52-.17-1.17-.87-1.39-.11-.03-.18-.26-.23-.41-.1-.36-.15-.74-.27-1.09-.16-.45-.41-.87-.56-1.32-.3-.91-.54-1.85-.84-2.76-.18-.54-.56-1.03-.64-1.57-.15-1.09-.42-2.11-1.07-3.01-.07-.09-.03-.27-.04-.4-.02-.36-.02-.72-.07-1.07-.05-.34-.2-.67-.25-1.01-.05-.32.04-.66-.04-.96-.28-1.17-.6-2.33-.91-3.49l.23-.18c.56.36 1.12.72 1.69 1.06.12.07.31.04.44.11.3.15.71.26.84.52.29.56.72.83 1.27.56.34-.17.52-.11.68.25.23.51.78.55 1.14.39.39-.17.51-.09.68.21.05.1.16.19.27.22.57.15 1.14.35 1.72.41.89.09 1.79.05 2.68.14.36.04.77-.12 1-.04.53.18.9.1 1.15-.2.4.08.71.2 1.02.2.38 0 .77-.15 1.14-.11.76.08 1.51.27 2.27.37.53.07 1.06.08 1.4.62.09.14.44.1.67.16.35.09.69.2 1.03.28.31.07.62.12.93.17.08.01.18-.03.26 0 .57.12 1.12.27 1.69.37.26.05.54 0 .93 0 .46.37.94.4 1.55.11.29.07.58.07.87.06.07 0 .14-.03.21-.03.82.05 1.66.27 2.43.11.46-.09.8 0 1.2.04.2.02.42-.1.63-.08.87.11 1.73.29 2.6.37.47.04.95-.09 1.42-.1.68-.01 1.36.05 2.04.01.34-.02.67-.17 1.14-.3.64.35 1.24.01 1.71-.49.31.1.55.21.8.23.37.03.75 0 1.12 0 .63-.02 1.26.27 1.89-.14.26-.17.75-.26 1-.13.46.25.84.01 1.26.03.67.03 1.03-.67 1.84-.5 1.31.27 2.64-.23 3.94-.5.74-.15 1.47-.29 2.22-.38.37-.05.71-.31 1.12-.51.46.05 1 .16 1.54.14.27-.01.52-.31.81-.41.69-.24 1.41-.41 2.09-.67.27-.11.57-.36.69-.63.15-.35.31-.41.62-.26.44.22.78-.02 1.1-.27.12-.09.15-.32.27-.37.58-.24 1.17-.46 1.76-.65.11-.03.36.07.38.15.1.4.14.81.2 1.22.07.48.13.96.19 1.44.01.21-.02.46-.05.7-.03.2.02.5-.08.58-.65.45-.6 1.22-.88 1.84-.09.2-.04.46-.1.68-.19.69-.42 1.36-.59 2.05-.09.35-.09.73-.12 1.09 0 .13.05.26.06.4.02.25.13.6 0 .74-.52.58-.51 1.38-.39 1.92.19.87-.11 1.68.02 2.5.04.23-.05.48-.07.73-.08.81-.05 1.61.44 2.31.25.36.61.46.93.14.82-.8 1.14-1.86 1.49-2.92.12-.38.23-.78.46-1.09.27-.37.42-.69.24-.91.16-.42.28-.71.37-.99.04-.13.04-.27.08-.4.17-.66.35-1.32.5-1.98.03-.13-.03-.29-.05-.43-.01-.11-.07-.28-.03-.32.67-.51.42-1.34.64-1.99.27-.8.87-1.56.62-2.5-.01-.04.04-.12.09-.15.57-.33.42-.84.35-1.34-.03-.21-.05-.45 0-.64.21-.67-.06-1.15-.44-1.6zm-11.46-1.86c-.96-.57-1.86.08-2.8.1-1.01.02-2.02.32-3.03.52-.92.19-1.83.39-2.74.62-.19.05-.34.23-.57.4-.29.05-.72.15-1.16.2-.7.09-1.41.19-2.12.23-.36.02-.72-.09-1.09-.1-.39 0-.85-.09-1.17.07-.61.32-1.1.26-1.68-.22.27-.44.56-.89.84-1.35.18-.3.32-.63.53-.91.08-.1.31-.14.46-.13.82.05 1.51-.19 2.06-.82.31-.36.64-.72 1.02-.97.25-.16.63-.12.95-.19.96-.21 1.91-.44 2.86-.65 1.04-.23 2.07-.53 3.11-.66.44-.05.92.23 1.38.39.63.21 1.27.42 1.88.68.18.08.36.32.42.52.22.73.25 1.54.88 2.1.02.02-.02.09-.04.17zm5.78-11.23c-.24.25-.74.38-.56 1 .11.38.02.83.02 1.23-.38-.2-.63-.78-1.24-.61a.21.21 0 01-.11-.04c-.46-.65-1.35-.76-1.8-1.39-.9-1.27-2.33-1.79-3.53-2.64-1.09-.77-2.33-1.56-2.63-3.13-.23-1.18-.61-2.34-1.02-3.46-.22-.58-.66-1.08-1-1.62-.06-.1-.11-.22-.18-.31-.18-.23-.36-.47-.57-.69-.34-.36-.7-.7-1.05-1.05-.19-.19-.38-.38-.56-.58-.58-.66-1.15-1.33-1.74-1.98-.75-.82-1.48-1.65-2.29-2.41-.99-.93-1.6-1.92-1.22-3.37.15-.56-.05-1.21-.1-1.82-.01-.15-.04-.3-.07-.45-.65-.1-1.09.31-.86.96.16.45.01.8-.08 1.16-.37 1.49-.02 2.77.94 3.93.84 1.02 1.66 2.06 2.48 3.09.45.56 1 1.07 1.29 1.7.46 1 1.36 1.52 2.08 2.24.36.37.61.85.91 1.28 1.01 1.48 1.16 3.31 1.93 4.9.45.94 1.09 1.49 1.86 2 .64.43 1.29.83 1.96 1.2.3.17.64.29.97.38.86.24 1.18 1.12 1.87 1.57.51.34.68.81.72 1.41.02.26.31.5.49.73.04.06.18.07.19.12.14.84.89 1.21 1.4 1.74.15.15.55.07.95.1.29.43.16 1.07.23 1.69.09.78-.61 1.28-.55 2.01 0 .06-.18.17-.29.2-.67.19-1.36.35-2.03.56-.14.04-.22.24-.25.27-.55.16-1 .29-1.39.4-.26-.76-.44-1.5-.77-2.17-.15-.31-.54-.54-.87-.72-.74-.41-1.51-.77-2.27-1.14-.62-.3-1.23-.34-1.91-.07-.68.27-1.44.33-2.16.49-1.19.26-2.37.61-3.57.74-.81.09-1.41.41-1.96.93-.25.23-.55.43-.77.69-.48.56-1.14.45-1.7.35-.45-.08-.57.11-.7.39-.56 1.16-1.12 2.33-1.66 3.51-.18.39-.35.64-.82.4-.08-.04-.21-.07-.27-.03-.76.52-1.59.09-2.38.18-.07 0-.19-.09-.21-.06-.63.61-1.17-.04-1.76-.11-.51-.06-1.01-.13-1.52-.14-.18 0-.36.19-.55.29-.54-.68-.52-.63-1.29-.27-.29.14-.78.16-1.03 0-.64-.4-1.18-.38-1.78.07-.35-.38-.74-.55-1.21-.14-.06.05-.2.05-.28.02-.86-.33-1.76-.29-2.6-.07-.62.16-1.14.37-1.81.13-.38-.13-.88.15-1.33.14-.41 0-.82-.14-1.23-.23-.29-.06-.58-.14-.84-.26-.24-.11-.47-.24-.71-.34-.36-.15-.72-.35-1.1-.43-.7-.14-1.41-.23-2.12-.31-.8-.09-1.61-.14-2.41-.21-.44-.04-.89-.03-1.32-.13-1.03-.24-2.05-.54-3.17-.84.27-.3.4-.52.59-.66.62-.48.71-1.15.72-1.87 0-.22.09-.45.19-.64.41-.76.83-1.51 1.28-2.25.36-.59.74-1.16 1.18-1.69.26-.32.61-.57 1.12-.31.28.14 1.55-.5 1.57-.82.03-.52.52-.36.71-.64.91-1.4 1.61-2.87 2.08-4.48.23-.8.62-1.56 1.02-2.29.49-.89 1.06-1.73 1.61-2.59.1-.15.27-.25.42-.36.71-.51 1.08-1.18 1.4-2.02.3-.79.02-1.87.96-2.38.51-.28 1.08-.48 1.59-.75.34-.19.71-.4.95-.7.61-.76 1.44-.96 2.33-1.01.22-.01.46.18.69.27q.62.26 1.1-.18c.58.38 1.39.12 1.72-.51.24-.46.6-.86.77-1.33.24-.67.49-1.37.17-2.1-.03-.07-.1-.18-.14-.17-.91.09-1.25-.77-1.89-1.12-.6-.33-1.2-.68-1.83-.95-.62-.26-1.27-.45-1.91-.63-.22-.06-.49.04-.73.06.15.19.26.45.46.56 1.27.72 2.56 1.41 3.83 2.12.31.17.58.42.9.65-.21.37-.41.72-.62 1.08-.32-.09-.62-.19-.92-.27a.55.55 0 00-.33.05c-.42.17-.89.29-1.24.56-.67.52-1.55.55-2.22 1.02-.29.21-.51.55-.7.87-.34.58-.99.64-1.49.8-.88.29-1.45.86-1.96 1.54-.31.41-.52.89-.75 1.36-.11.22-.2.47-.23.72-.05.35-.19.55-.52.76-.3.19-.4.7-.58 1.07-.62 1.22-1.21 2.47-1.88 3.66-.38.67-.94 1.23-1.34 1.88-.36.59-.6 1.25-.94 1.85-.23.42-.5.83-.81 1.19-.12.14-.4.17-.62.21-.54.1-1.14.05-1.61.28-.44.21-.78.67-1.08 1.08-.46.61-.88 1.26-1.26 1.92-.22.38-.35.81-.5 1.22-.23.65-.47 1.3-.65 1.97-.09.32-.08.69-.05 1.03.06.73-.1.95-.72 1.28-.72.39-1.39.85-2.14 1.32-.27-.31-.65-.36-1.13-.06-.25.15-.61.1-.92.17-.32.07-.62.17-.97.27-.14-.49-.42-.6-.92-.47-.27.07-.62-.17-.92-.29-.25-.1-.48-.23-.7-.38a.441.441 0 01-.2-.3c-.1-.83-.07-1.65.04-2.49.08-.61 0-1.25 0-1.88 0-.27.12-.54.12-.82.01-.87-.01-1.75 0-2.62 0-.58 0-.62-.55-1.05.51-.63.67-1.61.41-2.05.17-.43.36-.76.43-1.12.14-.69.17-1.41.33-2.1.1-.44.37-.84.57-1.25.29-.59.7-1.15.84-1.77.14-.6.46-.95.83-1.38.43-.5.66-1.18.96-1.78.48-.95.83-2 1.47-2.82.56-.72 1.17-1.45 2.14-1.85.9-.36 1.65-1.12 2.46-1.7l1.73-1.22c.51-.36 1.14-.62 1.53-1.08.72-.86 1.84-1.04 2.64-1.74.16-.14.33-.27.41-.34.6-.15 1.13-.27 1.66-.42.7-.2 1.38-.52 2.1-.62.63-.09 1.28.03 1.93.06h.64c.54-.03 1.08-.05 1.61-.1.33-.03.65-.12.98-.18.73-.14 1.45-.29 2.18-.4.7-.1 1.41-.11 2.11-.21.8-.11 1.6-.24 2.39-.39 1.64-.31 3.29-.37 4.95-.3 1.02.04 2.04.15 3.07.18.58.01 1.17-.17 1.75-.11.76.07 1.49.31 2.25.45.9.16 1.34 1 2.11 1.36.51.24.98.59 1.45.9.38.25.71.58 1.11.79.71.36 1.15.99 1.7 1.52.65.63 1.31 1.24 2 1.83.3.26.66.55 1.02.6.79.1 1.26.71 1.81 1.12.43.32.55 1.05.83 1.59.07.14.23.33.35.34.44 0 .53.28.64.61.06.19.27.35.45.46.36.22.76.38 1.1.62.12.09.09.38.18.54.46.79.98 1.56 1.4 2.37.23.44.26.99.48 1.44.44.95.85 1.94 1.46 2.77.46.63.58 1.34.86 2.01.26.62.18 1.17-.08 1.77-.1.23.07.58.12.92zm-48.39-80.94c.03.58-.23 1.2.23 1.72.03.03-.07.14-.07.21v.98h.17c-.3.58.03 1.87.55 2.19.02 1.16.75 1.96 1.5 2.63.9.81 1.98 1.42 2.97 2.13.1.07.15.22.21.33.42.8 1.08 1.37 1.9 1.6.26.07.61.15.92.17.45.03 1 .04 1.17-.49.15-.48-.23-.81-.61-1.02-.86-.48-1.72-.89-2.42-1.65-.48-.52-.96-1.06-1.5-1.53-.72-.63-1.22-1.38-1.31-2.35-.02-.26.04-.54 0-.8-.11-.86-.24-1.72-.35-2.58-.02-.17-.07-.4.01-.52.33-.49.17-.88-.19-1.31.69-.36.44-.98.44-1.52 0-.97-.6-1.91-.13-2.91.02-.05.01-.12 0-.17-.26-.82-.15-1.65-.05-2.48.04-.36.08-.73.11-1.06.11-.26.21-.49.3-.74.08-.21.14-.43.2-.66.15-.61.28-1.22.42-1.83.16-.67.19-1.39.75-1.93.44-.43.9-.87 1.23-1.37.26-.4.51-.35.8-.25.06.73.16 1.41.15 2.09 0 1.29-.19 2.66.49 3.79.52.86.53 1.89 1.2 2.68.52.62.54.69 1.09.03.29.28.57.54.84.82.39.41.88.6 1.43.69.48.08.96.22 1.44.33.54.24.41 1.3 1.4 1.23.04 0 .07 0 .11-.01-.04 0-.08 0-.11.01-.31.02-.6-.03-.88-.02-.16 0-.42.15-.45.27-.3 1.29-.64 2.57-1.32 3.73-.22.38-.45.75-.67 1.13-.05-.07-.1-.14-.16-.21-.25.08-.57.1-.75.26-.5.45-1.04.91-.87 1.71 0 .03-.03.07-.05.11-.33.78.34 1.76 1.18 1.66.34-.04.55 0 .8.27.37.41.7.3.94-.19.21-.41.31-.9.84-1.11.16-.06.25-.46.25-.7 0-.31-.19-.64-.14-.94.11-.74.28-1.47.47-2.2.19-.76.43-1.51.64-2.27.16.37.2.71.28 1.04.06.27.17.53.25.79.19.59.33 1.23.93 1.53.63.31.99.87 1.41 1.37.36.43.66.96 1.22 1.09.31.07.82-.02.99-.24.21-.27.29-.76.22-1.12-.11-.58-.35-1.09-.88-1.54-.55-.47-.84-1.23-1.25-1.87.3-.33.22-.64-.03-.95-.28-.35-.36-.73-.15-1 .35 0 .61.03.86 0 .4-.06.82-.09 1.19-.25.39-.17.82-.39 1.05-.72.43-.61.73-1.31 1.07-1.97.32-.62.61-1.27.97-1.87.2-.32.59-.53.79-.85.35-.56.62-1.16.93-1.75.05-.1.11-.22.2-.26.38-.16.47-.42.34-.8-.03-.09 0-.27.07-.32.73-.56.59-1.41.72-2.16.13-.7.21-1.4.31-2.1.06-.01.12-.03.18-.04.13.32.29.64.4.96.39 1.11 1.01 2.11 1.09 3.36.09 1.37.48 2.73.75 4.09.06.31.15.61.22.91.07.29.18.59.18.88 0 1.05-.02 2.1-.1 3.14-.07 1.02-.24 2.03.06 3.04.06.21.02.48-.06.69-.39.99-.21 1.97-.06 2.98-.14.2-.4.41-.45.68-.18.83-.27 1.67-.41 2.51-.03.18-.09.38-.2.53-.19.28-.4.56-.64.8-.18.18-.39.36-.62.47-.84.39-1.73.6-2.65.72-.49.06-1.07.39-1.43.22-.94-.47-1.59.28-2.36.42-.82.14-1.58.69-2.35 1.1-.1.05-.16.43-.1.48.31.25.65.48 1.02.64.28.12.61.12.92.18.66.13 1.33.38 1.99.35.64-.03 1.33-.23 1.87-.57.81-.51 1.69-.48 2.54-.54 1.04-.07 1.79-.41 2.2-1.4.51.07 1.24-.38 1.6-.9.08-.12.14-.24.18-.36.09-.3.23-.62.43-.85.43-.5 1.04-.89 1.33-1.45.35-.67.5-1.46.65-2.22.08-.38-.04-.79-.04-1.18 0-.7.2-1.48-.04-2.09-.49-1.25-.3-2.57-.61-3.82-.13-.52-.16-1.06-.27-1.59-.1-.47-.56-.86-.26-1.41.03-.05-.1-.16-.11-.26-.11-.56-.26-1.13-.3-1.7-.04-.56.09-1.12.07-1.68-.06-1.22-.17-2.43-.26-3.65-.05-.62.06-1.34-.23-1.82-.33-.55-.4-1.03-.35-1.6 0-.08-.08-.17-.1-.27-.19-.88-.97-1.34-1.47-1.99-.67-.86-1.81-.83-2.71-1.25-.17-.08-.33-.19-.48-.31-.25-.2-.47-.49-.75-.6-.37-.14-.85-.04-1.17-.23-.66-.41-1.38-.51-2.1-.58-.42-.04-.85.13-1.28.14-.87.02-1.75-.04-2.62.01-.89.05-1.76.21-2.65.32v-.03c-.22.02-.43.02-.65.05-.17.02-.33.08-.5.09l-2.35.18a.21.21 0 00-.11.04c-.76.43-1.54.83-2.27 1.31-.5.33-.93.75-1.37 1.15-.24.22-.59.45-.64.72-.1.59-.44.92-.88 1.27-.66.52-1.11 1.28-1.97 1.59-.27.1-.47.54-.59.86-.11.32-.07.69-.12 1.04-.19 1.27-.64 2.36-1.92 2.93-.11.05-.2.25-.2.38 0 .77-.42 1.39-.7 2.05-.21.49-.56.91-.37 1.5.03.09-.01.25-.08.3-.42.3-.44.73-.37 1.17.12.8-.05 1.59-.03 2.39.01.58.02 1.17.05 1.75z"/><path class="cls-1" d="M288.67 39.93s.07 0 .11-.01c-.04 0-.07 0-.11.01zm23.67 121.65s-.14-.07-.21-.06c-.34.01-.69.09-1.01.04-.46-.08-.65.14-.84.41-.21.15-.44.27-.63.44-.22.2-.37.52-.62.67-.66.4-1.35.75-2.04 1.08-.56.26-1.17.41-1.72.69-.6.3-1.19.65-1.74 1.05-.62.45-1.24.81-2.04.8-.61 0-1.22.08-1.83.13-.5.04-1.02.2-1.49.1-.48-.09-.72.07-.85.24-.38.05-.62.06-.86.11-.95.23-1.89.51-2.85.7-.57.11-1.16.15-1.74.11-.59-.04-1.17-.28-1.77-.31-1.04-.06-2.09 0-3.14-.03-.49 0-.98-.03-1.47-.11-.79-.13-1.57-.36-2.37-.44-.97-.1-1.94-.11-2.92-.11-.18 0-.42.17-.5.33-.05.11.08.41.21.49.26.17.56.28.86.36.91.24 1.82.45 2.74.66.7.16 1.41.28 2.1.46.48.13.93.44 1.4.47.81.05 1.62.47 2.44.04.04-.02.15.04.18.1.21.38.49.18.76.11.48-.13 1.02-.41 1.44-.3 1.02.29 2.01.11 2.99-.02 1.36-.18 2.7-.56 4.07-.69.6-.05 1.15-.44 1.85-.16.31.12.89-.11 1.36-.05.11.01.25-.21.27-.23.36-.02.65.02.9-.06.74-.23 1.71.16 2.21-.77 0-.02.14.05.2.04.54-.14 1.2-.04 1.47-.72.61.22 2.84-.79 2.96-1.31.19.02.46.14.54.06.46-.43 1.3-.49 1.35-1.34 0-.12.17-.31.29-.34.73-.18.78-.77.69-1.29-.09-.48-.41-.92-.64-1.37zm-1.18-133.31c.04.4.75 1.72 1.09 1.85.1.04.23-.03.33-.01.66.11 1.38-.24 1.99.3.08.07.43-.06.58-.19.47-.4.9-.45 1.32-.15.52-.1.98-.18 1.49-.27.13.21.27.51.48.73.24.25.55.43.83.64.09-.38.23-.75.24-1.13.01-.33-.13-.67-.19-1.01-.09-.43-.17-.86-.25-1.29h-.01c-.06-.3-.09-.62-.19-.91-.19-.54-.39-1.08-.63-1.6-.13-.28-.35-.53-.56-.76-.18-.19-.44-.31-.61-.5-.24-.28-.38-.67-.66-.88-.33-.24-.92-.59-1.12-.46-.62.41-1.57.02-1.96.86-.73.05-1.3.37-1.73.96-.09.12-.24.2-.29.33-.14.32-.25.64-.34.97-.05.18-.08.39-.06.57.08.65.21 1.29.27 1.95zm-43.75 4.09c.82 0 1.43-.5 2.04-.97.24-.18.52-.39.61-.65.25-.66.47-1.35.57-2.05.15-1.08.3-2.15.12-3.27-.1-.65-.49-1.06-.72-1.58-.25-.55-.98.28-1.36-.27 0-.01-.27.15-.42.24-.13.08-.27.15-.38.26-.17.15-.32.32-.47.48-.1.11-.16.26-.26.36-.25.24-.56.43-.75.71-.59.83-1.18 1.66-1.67 2.54-.42.76-.74 1.58-1.03 2.41-.09.27.12.63.08.93-.07.41.09.61.45.66.39.06.62.23.76.62.16.43.43.45.76.13.34-.33.69-.65 1-.95.31.19.5.41.69.41zm28.04 90.87c.55-.21.56-.62.43-1.09-.12-.44-.34-.87-.35-1.31-.02-.67-.47-.87-.95-.98-.47-.11-.97-.08-1.46-.12-.53-.04-.8.2-.91.72-.34 1.66-1.21 2.93-2.76 3.71-.62.31-1.15.8-1.76 1.15-.45.26-.95.46-1.43.66-1.25.52-2.68.7-3.58 1.92-.22.3-.61.49-.92.73-.23.18-.4 1.24-.09 1.73.51.81.91 1.63 1.8 2.21.59.38 1.13.34 1.66.34.57 0 1.15-.3 1.71-.52.79-.31 1.58-.62 2.32-1.03.81-.45 1.58-.89 2.51-1.12 1.36-.33 2.49-1.12 3.06-2.51.18-.43.42-.84.59-1.27.32-.78.67-1.53.6-2.43-.04-.46-.22-.54-.57-.57.03-.1.04-.23.08-.25zm-1.01 2.29c-.23.6-.72 1.1-.97 1.7-.36.87-1.12 1.31-1.79 1.84-.26.21-.66.25-.99.36-.9.28-1.79.55-2.69.81-.12.04-.27-.02-.41-.01-.21.01-.49-.04-.6.07-.41.41-.91.55-1.44.73-.66.22-1.21.28-1.66-.21-.34-.36-.62-.77-.89-1.12.47-1.01 1.23-1.65 2.16-2.07.4-.18.86-.28 1.3-.33.92-.12 1.69-.57 2.48-.98.62-.32 1.33-.52 1.88-.93.44-.33.72-.92 1.06-1.36.69-.88.79-1.92 1.23-2.86.31-.68.79-.11 1.26-.21-.37 1.04.18 1.74.61 2.37-.18.78-.28 1.52-.54 2.2zm3.98-10.83c-.34-.34-.79-.6-1.03-.99-.52-.86-1.38-1.04-2.22-1.29-.06-.02-.14.03-.4.1.3.33.54.59.77.84.25.28.52.55.73.86.23.34.44.7.56 1.08.08.23.04.72-.06.75-.51.17-.69.5-.75.99-.02.13-.14.26-.25.36-.44.4-1.14.41-1.82.03-.73-.4-1.48-.47-2.3-.12-.17-.74-.24-1.41.35-1.97.63-.59 1.1-1.25 1.31-2.13.13-.51-.36-.43-.44-.7 0-.03-.38-.03-.47.06-.51.54-.97 1.12-1.46 1.69-.18.21-.52.39-.55.63-.11.72-.13 1.45-.14 2.17-.01.65.35 1.06.99 1.14.82.1 1.65.16 2.48.19.41.02.84-.13 1.23-.06.93.15 1.69-.27 2.46-.65.28-.14.43-.52.86-.38.07.02.28-.22.37-.38.18-.35.34-.72.49-1.08.04-.1.08-.25.03-.32a8.39 8.39 0 00-.74-.84zm-15.9 19.19c-.57.2-1.14.44-1.66.74-.28.16-.61.47-.66.76-.06.3.14.68.32.98.07.11.39.14.58.1.36-.08.7-.24.97-.33-.03-.01-.2-.08-.52-.21.2-.14.34-.21.46-.32.4-.36.94-.59 1.34-.33.27.17.28.77.38 1.18.06.24.09.49.13.73.07.48.44.39.65.25.23-.16.45-.46.49-.73.13-.82.03-1.59-.62-2.24-.56-.56-1.12-.82-1.84-.57zm8.41-1.25c-1.44-1-3.59-.14-3.9 1.57-.03.15.06.36.17.47.07.07.33.07.4 0 .24-.22.49-.47.63-.76.4-.87 1.07-.91 2.2-.34-.35.31-.62.54-.89.77-.11.09-.31.15-.34.25-.07.3-.18.8-.06.88.38.23.87.31 1.31.44.02 0 .07-.04.09-.06.31-.36.68-.65.85-1.16.41-1.18.38-1.49-.46-2.07z"/></g></svg>