<svg id="_レイヤー_2" xmlns="http://www.w3.org/2000/svg" viewBox="0 0 793.47 219.09"><defs><style>.cls-1{fill:#c6ad85;stroke-width:0}</style></defs><g id="_レイヤー_1-2"><path class="cls-1" d="M305.6 54.71c-.41 1-1.17 1.34-2.22 1.42 1.06-.07 1.82-.42 2.23-1.42.52.07 1.26-.39 1.62-.91-.36.52-1.1.98-1.62.91zM306.69 219l-.15-.06.15.06zm.08.03l.15.06c.03-.09.06-.18.08-.27-.03.09-.06.18-.08.27l-.15-.06zm-83.58-91.88c.03-.07.05-.14.09-.2-.03.07-.06.13-.09.2zm.11 1c-.24-.35-.22-.69-.11-1-.11.31-.13.65.11 1-.24.3-.34.46-.32.65-.02-.19.08-.35.32-.65zm63.24 84.35s.03-.07.04-.11c.04-.02.07-.05.11-.04-.03 0-.07.03-.11.04-.02.04-.05.08-.04.11z"/><path class="cls-1" d="M372.09 144.89c-.26-.55-.23-1.05-.32-1.57-.06-.33-.11-.67-.18-1-.03-.14-.12-.27-.15-.41-.09-.54-.05-1.15-.29-1.62-.25-.5-.3-1.02-.41-1.52-.13-.61-.12-1.22-.81-1.55-.2-.09-.31-.39-.44-.61-.35-.62-.68-1.26-1.01-1.89-.12-.22-.3-.43-.34-.66-.22-1.14.09-2.33-.48-3.45-.27-.53-.19-1.22-.38-1.8-.21-.64-.64-1.21-.81-1.86-.22-.81-.21-1.67-.41-2.48-.22-.85-.09-1.77-.54-2.57-.03-.05-.06-.13-.04-.16.36-.51-.14-.79-.3-1.16-.19-.43-.34-.87-.51-1.31-.55-2.71-.25-5.54-.97-8.12.1-.36.23-.62.21-.86-.04-.6-.1-1.22-.24-1.8-.11-.46-.22-1.05-.55-1.31-.45-.36-.58-.84-.7-1.27-.19-.69-.13-1.45-.24-2.17-.09-.58-.27-1.14-.44-1.81.16-.25-.1-2.59-.31-2.8.07-.48.18-.86.16-1.24-.02-.46-.21-.91-.21-1.37 0-.69.12-1.38.14-2.08.02-.38-.05-.77-.08-1.15.04-.27.05-.56.13-.83.23-.78-.42-1.47-.18-2.26.05-.17-.25-.47-.19-.63.25-.66-.08-1.03-.61-1.38.48-.39.36-.76.04-1.14-.07-.09-.18-.24-.15-.31.29-.69-.2-1.29-.19-1.96 0-.31-.21-.63-.32-.94-.12-.32-.23-.63-.35-.95-.05-.15.1-.37.05-.54-.12-.45-.32-.88-.49-1.31-.11-.29-.24-.58-.35-.86-.1-.24-.3-.49-.27-.71.08-.48-.09-.77-.45-1.04-.15-.12-.2-.38-.29-.58-.13-.31-.19-.65-.37-.92-.29-.44-.67-.83-.99-1.25-.06-.07-.07-.25-.02-.32.27-.39-.02-.66-.17-.97-.06-.11-.14-.2-.19-.31-.23-.56-.3-1.28-.7-1.66-.6-.57-.44-1.42-.98-1.98-.39-.41-.64-.96-.97-1.42-.16-.23-.61-.24-.43-.71.11-.29 0-.72.19-.9.44-.44.43-1.09.28-1.4-.27-.6-.4-1.27-.73-1.79-.32-.53-.64-1.02-.83-1.62-.18-.56-.39-1.14-.98-1.48-.22-.13-.29-.49-.44-.74-.12-.21-.21-.44-.36-.63-.31-.38-.65-.73-.99-1.11-.12.08-.24.16-.43.29-.48-.98-.94-1.9-1.4-2.83-.35-.7-.7-1.41-1.04-2.11-.16-.33-.34-.62-.11-1.04.39-.72.23-1.17-.34-1.62.03-.42.1-.74.05-1.05-.06-.35-.29-.67-.33-1.01-.05-.41-.22-.64-.62-.74-.13-.03-.33-.2-.32-.25.26-.75-.33-.77-.77-.95-.13-.05-.29-.16-.32-.27-.11-.37-.16-.76-.26-1.14-.18-.66-.39-1.31-1.08-1.66-.18-.09-.38-.27-.42-.45-.14-.6-.43-.9-.98-.69-.1-.36-.15-.7-.28-1.01-.17-.41-.48-.79-.56-1.21-.1-.51-.15-.99-.55-1.12-.1-.46-.13-.82-.25-1.15-.17-.46-.44-.88-.62-1.33-.18-.45-.29-.93-.49-1.38-.13-.29-.54-.55-.51-.79.08-.54-.18-.7-.56-.79.01-.26.11-.52.02-.69-.41-.85-.87-1.68-1.33-2.5-.12-.21-.42-.36-.47-.58-.1-.55-.13-1.1-.81-1.29-.08-.02-.11-.2-.16-.31-.39-.9-.74-1.83-1.16-2.71-.4-.84-.89-1.63-1.32-2.46-.19-.37-.3-.78-.53-1.12-.16-.24-.63-.4-.63-.6 0-.47 0-.91-.17-1.35-.09-.24-.11-.51-.18-.76-.05-.16-.18-.31-.21-.47-.14-.78-.34-.94-1.1-.86-.26-.54-.45-1.17-1.35-1.19.24-.19.4-.29.53-.42.22-.22.55-.43.62-.71.17-.65.89-1.18.46-1.97-.01-.02.03-.07.03-.11.05-.36.2-.74.11-1.07-.33-1.3-.69-2.59-1.13-3.85-.18-.51-.61-.93-.95-1.39-.16-.21-.41-.37-.52-.59-.34-.74-1-1.21-1.81-1.21-.44 0-.89.03-1.33.03-.31 0-.62 0-.94-.02-.71-.03-1.49-.29-2 .51-.03.04-.11.03-.16.06-.25.17-.54.3-.73.51-.33.38-.59.81-.99 1.38-.29-.92-.52-1.65-.71-2.26-.24.21-.49.42-.7.6-.24-.3-.36-.51-.54-.67-.27-.24-.56-.48-.87-.66-.58-.35-.77-1.26-1.66-1.17-.04 0-.11-.07-.12-.12-.32-1.02-1.32-1.19-2.07-1.65-.52-.32-1.15-.5-1.76-.64-.56-.13-1.15-.12-1.78-.17-.49-.15-1.14-.2-1.6-.52-.46-.33-1.07-.03-1.5-.6-.29-.38-1.05-.41-1.62-.6-.14.06-.45.26-.51.2-.67-.66-1.5-.23-2.14-.15-.71.08-1.45.1-2.12.09-1.61-.04-3.15.14-4.7.52-1.59.39-3.21.72-4.83.85-1.39.11-2.81-.11-4.22-.21-.94-.07-1.86-.19-2.37-1.15-.48.11-.87.63-1.39.16-.39-.36-.62-.14-.78.28a.5.5 0 01-.28.29c-.85.33-1.69.66-1.89 1.71-.61-.14-1.5.54-1.65 1.07-1.52.94-2.91 1.79-4.24 2.61-.53-.31-1.31-.24-1.38-1.09-.3.34-.7.2-.93-.23-.31-.59-.6-1.19-.95-1.75-.54-.86-1.47-.98-2.34-.97-.61 0-1.3.21-1.81.54-.79.51-1.54 1.14-2.15 1.85-.49.57-.74 1.35-1.11 2.02-.27.49-.58.97-.88 1.44-.21.34-.37.74-.67.98-.49.41-.64.93-.77 1.49-.15.62-.25 1.27-.49 1.85-.47 1.13-.57 2.26-.21 3.43.09.3.14.62.28.9.23.49.54.95.77 1.44.18.38.41.79.39 1.18-.02.42-1 1.05-1.36 1.09-.2.02-.46.09-.57.24-.35.44-.65.93-.96 1.4-.7 1.06-1.42 2.11-2.1 3.19-.16.26-.21.59-.29.89-.28 1.08-1.34 1.78-1.38 3-.02.65-.28 1.29-.43 1.94-.18.76-.4 1.52-.51 2.29-.08.53-.4 1-.44 1.46-.03.48-.25.81-.4 1.21-.12.33-.17.68-.28 1.01-.25.8-.51 1.59-.78 2.38-.2.58-.88 1.03-.43 1.78.03.06-.04.23-.12.3-1.01.91-.88 2.19-1.07 3.35-.06.38 0 .77 0 1.3-1.73 3.82-4.02 7.6-4.78 11.98-.68-.12-.84.02-.89.59-.02.19 0 .45-.1.57-.59.63-.69 1.45-.91 2.21-.15.53-.19 1.1-.38 1.61-.32.83-.76 1.61-1.09 2.43-.48 1.17-.78 2.43-1.41 3.51-.84 1.44-1.36 3.09-2.64 4.26-.08.08-.12.2-.18.3-.37.76-.73 1.52-1.1 2.28-.3.63-.69 1.23-.89 1.89-.16.56-.86 1.02-.33 1.74-.93-.02-.7.81-.92 1.24-.34.67-.43 1.46-.63 2.2 0 .04-.04.06-.07.1-.57.75-.52 1.61-.46 2.46-.12.16-.3.31-.37.49-.29.81-.57 1.62-.81 2.44-.21.72-.11 1.5-.52 2.21-.26.44-.03 1.04-.33 1.58-.3.56-.28 1.29-.39 1.95-.09.53-.13 1.08-.28 1.6-.2.72-.49 1.42-.72 2.14-.08.26-.09.55-.15.82-.11.49-.31.99-.32 1.48 0 .47.19.92-.33 1.25-.1.06-.12.29-.13.44-.03.4.2.83-.22 1.19-.11.09 0 .41-.04.61-.04.3-.08.61-.18.9-.06.18-.27.32-.3.5-.18.85-.23 1.72-.57 2.55-.36.9-.22 1.91-.56 2.83-.04.12.05.3.1.45.03.09.14.19.12.26-.12.44-.31.87-.4 1.32-.06.31-.01.65-.01 1.07-.42.39-1.09 5.92-.71 6.46-.1.1-.24.19-.28.31-.18.59.16 1.29-.33 1.83v.06c0 .26.03.53-.03.77-.11.45-.32.88-.42 1.33-.15.73-.49 1.33-.89 1.95-.09.14-.19.3-.27.46-.03.07-.06.13-.09.2-.11.31-.13.65.11 1-.24.3-.34.46-.32.65.02.15.11.32.27.58.07.11.09.26.09.39.04.75.24 1.55.06 2.24-.18.69-.07 1.21.25 1.66-.81 1.53-1.75 2.93-.54 4.59-.7.48-.77.7-.53 1.68-.15.17-.35.31-.41.5-.26.8-.46 1.62-.72 2.42-.11.34-.38.64-.16 1.04.03.07-.11.27-.22.36-.41.36-.63.72-.12 1.15-.35.33-.48.65-.23 1.06.05.08.02.2.02.31-.01.29-.1.6-.04.88.2.98.46 1.94.66 2.91.21.98.56 1.86 1.14 2.72.41.61.98.97 1.52 1.12.44.13.57.36.87.64-.78.14-.72.7-.61 1.15.08.33.42.59.65.88.1.04.06.16.06.28.01.58-.12 1.22.09 1.72.26.64.76 1.19 1.22 1.73.49.57.69 1.27 1.01 1.93.33.68.81 1.28 1.31 2.03.09-1.04.13-1.86.24-2.67.12-.9-.13-1.86.42-2.7.05-.08 0-.28-.07-.38-.3-.42-.32-.84-.08-1.32.31.29.58.57.88.81.11.09.9.8.95.94.28.73.22 1.61 1 2.11.07.04.1.23.07.33-.26.97.46 1.53.96 2.14.4.49.97.82 1.45 1.25.64.58 1.27 1.19 1.98 1.86.04-.24.06-.31.05-.38 0-.12-.03-.23-.06-.35-.35-1.26-.28-2.56-.35-3.85-.03-.56.15-1.21-.54-1.52.28-.77.41-.79 1.48-.26-.05.62.7 1.72 1.38 1.98-.08.19-.15.39-.23.59.75.77 1.12 1.94 2.42 2.27-.21-1.96-1.1-3.72-.88-5.67l.62.38c-.05.85.39 1.47.86 2.08.07.1.15.2.21.31.22.35.38.74.66 1.03.21.22.65.24.83.47.43.53.95.58 1.52.43.69-.18 1.02-.7 1.14-1.36.06-.31.17-.81.02-.93-.37-.29-.26-.65-.37-.98-.22-.63-.43-1.35-.88-1.8-.48-.49-.44-1.05-.63-1.6.15.06.29.14.36.25.23.42.32.99.66 1.26.44.34.58.76.74 1.22.15.42.31.84.46 1.26.22.58.63 1.08.56 1.79-.03.29.3.62.49.98.01.17.01.44.06.7.08.4.19.81.32 1.2.2.6.39 1.22.93 1.63.29.22.81.4.85.66.12.78.85.7 1.26 1.04.28.24.82.35 1.19.27.86-.17 1.45.41 1.99.78.51.35.7 1.16 1.19 1.69.7.75 1.38 1.48 2.28 2.01.41.24.77.62 1.07.99.4.51.71 1.09 1.09 1.61.24.33.54.63.82.93.5.51 1.01 1.02 1.53 1.51.41.38.86.71 1.26 1.08.47.44.91.92 1.38 1.37.21.2.5.32.71.52.65.61 1.27 1.23 1.91 1.85.43.41.89.8 1.29 1.24.17.19.16.55.34.72.49.46.61 1.22 1.31 1.49.04.02.05.11.07.16.24.49.5.98.73 1.48.23.49.6.97.64 1.48.08 1.11.95 1.59 1.57 2.28.25.27.79.41.85.69.16.75.13 1.55.2 2.32.03.33.25.66.22.97-.04.5-.16 1.02-.35 1.48-.22.52-.3.97.02 1.31-.14.35-.4.66-.33.87.22.68.31 1.31.03 1.99-.09.21-.14.47-.11.69.06.39-.23.74-.23 1 .01.64-.37 1.15-.35 1.75 0 .09.04.2.1.27.32.38.47.72-.12 1-.07.03-.11.21-.1.32.07.56.15 1.11.25 1.77 0 0-.16.05-.21.16-.23.43-.58.87-.6 1.32-.02.64-.24 1.14-.53 1.68-.29.54-.6 1.12-.43 1.93.55-.47 1.03-.83 1.45-1.25.36-.37.63-.22.91.05.18.18.16.56.63.43.17-.05.55.36.69.63.24.47.38.99.54 1.44.58-.12 1.06-.22 1.53-.32.05-.01.11-.06.13-.11.14-.37.34-.48.71-.25.25.15.55.21.8.36.13.08.32.34.28.4-.31.49.11.77.31 1.08.07.11.48.16.58.07.62-.55.87-1.3 1.03-2.01.59-.18 1.2-.35 1.8-.54.5-.16 1-.34 1.51-.48.64-.17 1.31-.24 1.92-.47.91-.35.97-.57.66-1.44 0-.03.03-.07.04-.11.04-.02.07-.05.11-.04.91.08 1.07-.09 1.08-1.04 0-.33.12-.71.31-.96.51-.65.8-1.31.52-2.14-.02-.06 0-.19.05-.21.52-.24.42-.64.42-1.12 0-1.09.41-2.14.28-3.26-.07-.65.1-1.32.13-1.98.03-.71-.01-1.41 0-2.12.04-1.36 0-2.72.48-4.03.24-.65.71-.8 1.26-.31.22.2.38.5.64.63.27.14.61.13.91.19.23.04.53.18.69.09.4-.22.81-.49 1.09-.85.27-.36.55-.48.97-.53.53-.06.95.2 1.41.37.39.15.33.42.33.7-.01.72-.06 1.44 0 2.15.03.42.25.83.36 1.25.09.35.1.73.23 1.07.28.72.85 1.42.86 2.14 0 1.02.8 1.91.4 2.95-.03.07.02.23.08.27.42.27.33.62.21 1-.03.11-.02.24 0 .36.1.48.03.99.49 1.4.16.14.06.66.46.74.7.14.91.81 1.13 1.25.29.6.55.95 1.04.9.28.36.49.62.69.88.15.2.47.47.43.58-.21.52.16.92.19 1.32.06.85.57 1.43.86 2.13.11.27.42.45.57.7.38.63.71 1.3 1.11 1.92.03.05.09.09.16.13l.15.06c.03 0 .05.02.08.03l.15.06c.03-.09.06-.18.08-.27.03-.09.05-.18.07-.27.19-.99-.1-2.01.33-2.99.29-.66-.22-1.39.14-2.16.19-.4.47-.56.66-.92.76 1.52 1.51 2.28 2.98 2.98.33.16.76.08 1.31.12-.69-1.46-1.8-2.31-2.66-3.38.13-.19.27-.55.39-.55.74.02.61-.64.77-1 .29-.67-.41-1.68-1.14-1.82-.49-.09-.96-.58-1.47-.03-.02.02-.11-.05-.16-.05-.5.02-1.02-.03-1.49.1-.9.26-1.72.47-2.31-.55-.11-.19-.47-.24-.75-.37-.19-.49-.42-1.07-.69-1.76h1.69c.47 0 .89-.03.98-.63.02-.11.27-.29.39-.26.86.17 1.44-.61 2.28-.6.72.01 1.45-.24 2.17-.38.17-.03.35-.05.5-.13.24-.12.46-.29.76-.48.17.52.18 1.09.42 1.22.53.27.48.79.64 1.16.36.84.17 1.88.89 2.62.02.02-.02.11-.03.17-.1.45.17.58.53.69.19.06.43.15.52.31.52.9 1.29.91 1.93.08.55-.71.84-1.46.64-2.35-.07-.3-.16-.6-.24-.9-.03 0-.07 0-.1-.01 0-.25.09-.55-.02-.73-.27-.42-.65-.77-.97-1.16-.29-.35-.92-.52-.66-1.2.03-.09-.09-.24-.16-.35-.27-.47-.54-.94-.82-1.41-.06-.09-.15-.17-.22-.26-.08-.11-.21-.21-.22-.33-.06-.71-.07-1.42-.16-2.12-.04-.33-.24-.64-.35-.96-.04-.11-.03-.24-.04-.36 0-.18-.02-.37 0-.55.06-.53-.05-1.23.24-1.56.55-.63.74-1.33.91-2.07.1-.4.02-.88.21-1.21.33-.55.82-.99 1.22-1.49.48-.59 1.05-1.09 1.68-1.52.11-.08.13-.3.24-.35.76-.38 1.54-.7 2.28-1.09.43-.22.81-.76 1.22-.77.94-.02 1.41-.89 2.27-1.02.44-.07.81-.5 1.23-.75.35-.21.71-.4 1.09-.56.84-.35 1.82-.29 2.59-.85.74-.54 1.45-1.11 2.17-1.67.07-.06.09-.17.15-.25.1-.14.19-.3.33-.39.52-.36 1.05-.7 1.03-1.27.41-.32.75-.54 1.03-.81.29-.27.48-.67.8-.88 1.15-.73 1.6-1.98 2.31-3.04.3-.45.46-.99.79-1.43.39-.53.9-.96 1.32-1.47.17-.21.22-.51.34-.78.4-.39.88-.79 1.25-1.27.17-.21.11-.6.16-.9.35-.25.62-.59.91-.89.65-.69.54-1.77 1.27-2.42.06-.06 0-.3-.06-.44-.13-.3-.13-.48.23-.63.19-.08.38-.3.46-.5.27-.68.49-1.39.73-2.08.17-.48.34-.95.51-1.43.09-.26.19-.52.28-.78.1-.3.13-.65.31-.89.55-.75.66-1.62.79-2.49.01-.09.07-.17.12-.25.34-.55.53-1.11.15-1.73-.25-.41-.09-.75.41-1.05.45-.26.6.09.77.37.25.41.44.87.72 1.25.42.58.9 1.12 1.34 1.66-.09.19-.28.39-.26.56.08.63.19 1.25.17 1.91-.02.61.16 1.22.01 1.85-.11.45.55 1.5.98 1.59.06.01.14.03.17 0 .24-.24.68-.14.83-.27.43-.39.8-.89 1.04-1.42.1-.22-.16-.61-.27-.98.86-.25.29-.84.18-1.3.42.11.83.22 1.31.36v1.98c0 .97.31 1.86.93 2.58.23.27.73.3 1.11.44.63.22 1.09 0 1.32-.65.15-.43.13-.94.62-1.19.07-.04.12-.17.13-.26.06-.52.14-1.04.15-1.56 0-.78-.04-1.56-.07-2.4.28-.03.67-.06 1.05-.09-.29.35-.38.62-.09.96.06.07 0 .25-.03.37-.15.88.09 1.6.68 2.29.32.37.42.93.6 1.42.16.45.29.91.44 1.36h.19c.09-.16.2-.31.26-.49.15-.44.24-.9.42-1.33.28-.68.75-1.32.86-2.03.13-.8.05-1.67-.11-2.48-.13-.66-.5-.75-1.18-.58-.1.03-.23-.02-.26-.03.3-.29.55-.6.87-.81.27-.18.63-.34.94-.33.55.01 1.09.16 1.74.27.04.27.07.62.14.98.05.27.06.59.21.77.3.36.22.71.17 1.09-.04.31-.14.71 0 .91.44.61.18 1.42.76 2.03.45.47.55 1.27.91 1.86.14.23.5.73.8.41.47-.5.87-1.14 1.09-1.79.11-.32.1-.63.41-.88.49-.41.84-.97.74-1.6-.11-.68-.09-1.33.03-1.99.03-.17.15-.35.12-.51-.18-.92-.05-1.89-.56-2.75-.14-.23-.01-.63-.15-.85-.26-.42-.64-.77-.97-1.16.38-.55 1.42-.56 1.66-1.47 0-.03.06-.06.09-.06.78.04.9-.61 1.18-1.11.24-.42.41-.96.78-1.22.56-.39.67-.85.64-1.45-.02-.49-.34-1.03.1-1.47.7-.69.29-1.53.03-2.09zm-129.44-21.28c-.09.45-.65 1.12.2 1.62-1.14.33-.7 1.26-.85 1.95-.01.06.07.2.05.21-.68.46-.32 1.29-.67 1.86-.02.03-.06.08-.05.11.21 1.04-.38 1.97-.43 2.98-.05.97-.14 1.94-.21 2.9-.04.45-.17.9-.11 1.33.06.44.3.86.44 1.3.04.12.07.3 0 .39-.34.49-.27.97-.12 1.51.11.4.05.84.11 1.26.09.67.21 1.33.32 2 .12.71.24 1.42.36 2.14.15.92.35 1.83.43 2.75.07.78.06 1.58-.01 2.37-.08.82-.18 1.67-.44 2.45-.19.56-.66 1.02-1.01 1.53-.02.03-.07.04-.1.06-.26.25-.09 1.55.22 1.76.08.05.18.1.23.18.08.13.13.29.19.43-.16.02-.31.05-.47.05-.33 0-.66 0-1 .08-.69-.47-2.16-.58-2.56-.15-.47-.18-.95-.31-1.37-.54-.45-.25-.83-.61-1.26-.89-.2-.13-.49-.29-.68-.24-.56.16-1.08.46-1.65.64-.33.1-.7.12-1.05.08-.62-.06-1.24-.18-1.86-.29-.13-.02-.29-.09-.36-.19-.48-.72-1.37-.85-1.97-1.37-.41-.36-.91-.66-.88-1.46.03-.88-.3-1.77-.51-2.65-.05-.2-.27-.36-.43-.56.19-.6 0-1.25-.6-1.75.32-.32.5-.62.31-1.14-.13-.34.22-.82.16-1.21-.14-.89.01-1.76.19-2.61.16-.79.57-1.53.8-2.31.19-.63.6-1.06.97-1.57.61-.83 1.04-1.85.49-2.95-.17-.35-.16-.61.29-.79.35-.14.59-.42.53-.88-.08-.63.22-1.29-.2-1.89-.03-.05-.04-.15-.01-.19.46-.66.26-1.31 0-1.97-.15-.38-.25-.71-.03-1.16.18-.37.08-.91 0-1.37-.17-1.04-.39-2.07-.6-3.09-.04-.19-.13-.36-.2-.55-.04-.13-.11-.26-.11-.4 0-.53 0-1.06.05-1.59.05-.58.15-1.16.2-1.74.02-.2-.06-.41-.09-.63.07-.36.21-.77.22-1.18.03-.97.3-1.88.63-2.78.17-.45.22-.95.33-1.42.03-.1.12-.19.15-.3.1-.39.24-.78.27-1.18.04-.58.31-1.01.64-1.46.29-.39.48-.89.58-1.37.16-.83.69-1.52.84-2.32.1-.53.59-1.03.25-1.63 0-.02-.03-.04-.02-.05.21-.59.43-1.17.64-1.76.16-.46.36-.91.47-1.38.18-.74.41-1.49.43-2.24.02-.65.44-1.09.56-1.66.01-.06.06-.13.04-.17-.34-.6.14-1.01.32-1.5.12-.31.02-.69.04-1.04.01-.19.08-.37.13-.56.08-.28.16-.56.24-.85.12-.46.26-.93.34-1.4.04-.24-.04-.5-.07-.81.44-.24.39-.72.51-1.19.2-.77.15-1.58.47-2.35.19-.46-.04-1.1-.08-1.79.43-.27.64-.8.39-1.49-.03-.09-.04-.25 0-.29.6-.43.24-1.09.41-1.62.24-.77.47-1.55.68-2.33.14-.5.11-1.09.37-1.5.39-.59.04-1.41.7-1.89.14-.1.13-.4.2-.61.34-.96.66-1.93 1.02-2.89.22-.59.52-1.16.76-1.75.23-.59.43-1.19.64-1.79.08-.23.16-.45.25-.68.36-.94.72-1.88 1.14-2.96.25.85.45 1.58.69 2.29.11.34.32.64.42.98.08.29.04.62.11.91.11.5.28.99.41 1.48.03.09.07.2.04.29-.26.8.31 1.24.75 1.86-.06.07-.19.21-.29.36-.19.28-.43.56-.03.87.06.05.11.19.09.25-.3.74.13 1.39.27 2.05.24 1.13.59 2.24.97 3.34.26.73.67 1.41.96 2.14.2.49.29 1.02.44 1.53.03.09.06.19.11.27.46.78.46 1.68.67 2.52.09.35.35.66.52.99.06.12.15.27.11.37-.28.76.02 1.47.09 2.2.06.71.37 1.2.62 1.77.05.11-.02.26-.03.4-.01.17-.06.36-.02.52.24.95.55 1.89.75 2.85.17.82.23 1.67.31 2.51.04.43.03.87 0 1.31-.03.64-.23.78-.89.79-.19 0-.48.11-.54.25-.24.56-.47 1.14-.57 1.74-.04.27.11.49-.22.72-.23.17-.3.57-.44.87-.29.6-.61 1.19-.88 1.8-.25.57-.26 1.14-.06 1.76.16.51-.12 1.02-.31 1.53-.36.96-.65 1.96-.8 2.97-.23 1.52-.72 2.93-1.28 4.34-.36.9-.57 1.89-.64 2.86-.07.93-.33 1.8-.5 2.69zm42.51 84.25c-.03.92-.07 1.84-.13 2.75-.02.26-.09.53-.14.79-.04.22-.08.44-.09.55-.75.37-1.43.8-2.18 1.04-.42.13-.61.24-.78.66-.12.29-.6.15-.96.12-.8-.06-1.56-.18-2.31-.48-.2-.08-.44-.05-.67-.07-.48-.21-.89-.46-1.55-.4-.62.06-1.28-.34-1.98-.55.2-.26.38-.5.57-.73.04-.05.11-.12.1-.14-.34-.6.29-.77.49-1.12.53-.92.7-1.9.56-2.97-.07-.52.12-1.07.2-1.61.04-.25.09-.5.11-.63.85.19 1.71.41 2.59.57.32.06.66-.02 1-.05.87-.07 1.64.36 2.48.46.09.01.2.07.28.05.48-.15.6.15.76.51.07.16.33.27.53.35.35.14.74.2 1.07.37.09.04.07.35.06.54zm60.98-74.96c-.06.83.05 1.67-.05 2.49-.07.55-.37 1.07-.59 1.59-.53 1.22-1.07 2.44-1.03 3.81 0 .17-.03.35.02.51.18.59.03 1.16-.06 1.74-.04.25.09.52.17.88-.19.55-.37 1.22.1 1.88.06.09.1.21.11.31.01.33 0 .66 0 1.07-1.11.27-.55 1.44-.92 2.17-.27.53-.48 1.12-.57 1.71-.06.41.11.86.19 1.35-.68.06-.78.72-.97 1.4-.34 1.19-.8 2.35-1.17 3.53-.33 1.04-.75 2.08-.84 3.14-.07.78-.72 1.22-.76 1.97-.03.56-.24 1.12-.38 1.68-.04.14-.09.28-.17.4-.26.37-.63.7-.78 1.11-.35 1.02-.95 1.86-1.62 2.67-.13.16-.2.47-.15.67.11.39.04.5-.38.56-.86.12-1.02.35-1.05 1.18 0 .12-.2.3-.32.32-.56.08-.8.47-1.07.91-.77 1.24-1.59 2.46-2.42 3.67-.31.45-.69.83-.97 1.31-.18.16-.34.33-.53.47-.29.2-.65.33-.89.58-.74.73-1.42 1.52-2.15 2.26-.24.25-.57.42-.83.65-.29.25-.57.5-.82.79-.44.51-.84 1.05-1.19 1.49-.36.25-.68.43-.95.68-.39.35-.71.79-1.14 1.09-.27.19-.68.17-1.02.27-1.08.3-2.17.56-3.04 1.37-.41.38-.95.61-1.42.93-.12.08-.26.2-.29.33-.08.33-.24.39-.59.38-.31 0-.65.19-.95.35-.16.09-.26.4-.4.41-.71.08-1.05.66-1.55 1.03-.03.02-.09 0-.11.02-.4.45-.82.9-1.2 1.37-.27.34-.54.7-.74 1.08-.34.62-.64 1.27-1.01 2.04-.24.07-.6.25-.54.79.01.1-.16.21-.2.33-.07.19-.16.42-.12.59.17.68.36 1.35.6 2 .05.14.33.24.52.29.34.09.49.15.26.55-.24.43-.33.93.2 1.28.05.03.07.11.09.18.13.53.25 1.05.39 1.64-.85.25-1.79.77-2.93.62-.55-.07-1.35-.05-1.65.29-.43.48-.89.42-1.35.58-.16.06-.25.3-.35.43-.82-.48-1.56-.35-2.41-.03-.04-.51-.11-.98-.09-1.46.05-1.17-.19-2.29-.45-3.43-.1-.44-.23-.97-.22-1.51.02-.7.29-1.59-.41-2.25-.17-.16-.12-.56-.16-.86-.05-.47-.24-.79-.78-.76-.15 0-.4-.01-.44-.09-.36-.83-.98-.46-1.44-.25-.62.29-1.22.14-1.75.01-1.05-.26-1.92-.07-2.81.62 0-.2-.01-.36 0-.52.03-.38-.03-.71-.37-.94-.08-.05-.17-.14-.19-.22-.2-.95-.94-1.18-1.73-1.14-1.02.05-2.11.07-2.88.9-.26.27-.34.71-.5 1.08-.02.04-.04.07-.06.1-.26.22-.69.4-.73.66-.07.41-.16.68-.57.85-.14.06-.27.3-.3.47-.1.6-.17 1.21-.22 1.82-.1 1.15-.23 2.31-.27 3.46-.03.78.09 1.56.08 2.33 0 .37-.19.74-.38.94-.43.1-.85.21-1.28.3-.1.02-.22 0-.33 0-.18 0-.46-.05-.52.04-.54.78-1.16.09-1.71.09-.95 0-1.81-.56-2.87-.37-.61.11-1.36-.33-1.98-.66-.14-.07 0-.72.07-1.1.06-.31.25-.59.31-.9.1-.48.17-.98.18-1.47 0-.63-.04-1.26-.11-1.89-.02-.15-.25-.28-.34-.38-.06-.66.14-1.28-.31-1.89-.24-.31-.26-.79-.37-1.16l.65-.24c-.26-.32-.51-.56-.68-.85-.13-.21-.13-.5-.22-.73-.07-.18-.19-.35-.32-.57.19-.58-.03-1.33-.57-1.79-.06-.05-.16-.1-.17-.16-.24-1.48-1.7-1.89-2.51-2.87-.23-.28-.42-.59-.61-.9-.35-.59-.63-1.22-1.03-1.77-.18-.25-.57-.35-.93-.56-.01-.71-.53-1.21-1.34-1.61-.94-.48-1.86-1.05-2.49-1.98-.25-.37-.67-.61-1.02-.91-.04-.04-.14-.05-.15-.09-.15-.7-.88-.58-1.28-.91-.45-.37-.85-.81-1.31-1.18-.67-.53-1.1-1.24-1.56-1.93-.03-.04-.1-.06-.15-.09-.35-.2-.61-.4-.8-.82-.21-.44-.76-.72-1.16-1.07-.51-.44-1.18-.79-1.48-1.35-.26-.49-.76-.69-.97-1.18-.19-.45-.71-.61-1.01-1.02-.45-.6-1.03-1.15-1.67-1.53-.5-.3-.73-.93-1.39-1.01-.15-.02-.31-.31-.39-.5-.33-.79-.47-1.74-1-2.37-.64-.77-.52-1.8-1.16-2.5-.17-.19-.41-.31-.57-.5-.17-.2-.31-.43-.41-.68-.12-.29-.25-.45-.6-.54-.28-.07-.64-.46-.67-.73-.07-.8-.71-1.21-1.03-1.83-.19-.37-.48-.7-.76-1.02a2.21 2.21 0 00-.85-.59c-.1-.19-.19-.37-.29-.56-.04-.07-.1-.13-.11-.2-.13-.74-.29-1.47-.38-2.22-.11-.94-.16-1.88-.24-2.82-.06-.81-.12-1.61-.19-2.42-.1-1.2-.24-2.4-.29-3.61-.03-.61.07-1.24.2-1.84.15-.73.41-1.43.38-2.2-.01-.31.21-.65.36-.95.28-.55.17-1.03-.29-1.52 1.14-.13.95-1.03 1.06-1.72.16-1.03.25-2.08.37-3.12.01-.1.06-.22.03-.29-.33-.65.2-1.17.23-1.76a4.4 4.4 0 00-.1-1.14c.16-.65.96-1.17.34-2.04-.08-.11.09-.49.25-.64.26-.26.38-.45.24-.86-.17-.53-.41-1.13.18-1.62.1-.08.1-.31.09-.47-.02-.24-.07-.48-.12-.72-.07-.33-.15-.67-.26-1.18.36-.56.41-1.35.03-2.17-.02-.05-.06-.13-.04-.16.57-1.08.07-2.2.11-3.29.03-.66.17-1.33.3-1.98.23-1.09.51-2.17.74-3.26.03-.15-.07-.33-.07-.49.03-.65-.09-1.38.17-1.93.37-.77 1.04-1.38 1.54-2.09.39-.55.71-1.15 1.04-1.7.25.38 1.31.74 1.74.43.24-.17.44-.57.43-.85-.05-1.18-.18-2.35-.29-3.52-.06-.68-.14-1.35-.23-2.02-.11-.83-.15-1.7-.39-2.49-.18-.58.26-1.31-.42-1.76-.02-.02-.04-.08-.03-.11.22-1.12-.21-2.21-.15-3.33 0-.09-.05-.19-.09-.28-.29-.57-.42-1.19-.51-1.81-.04-.29.05-.59.04-.89-.03-.6-.04-1.21-.13-1.81-.13-.83-.33-1.64-.52-2.46-.16-.67-.37-1.34-.53-2.01-.12-.5-.2-1.02-.33-1.52-.07-.26-.22-.5-.31-.7-.15-.54-.28-1.05-.41-1.55-.11-.41-.17-.84-.33-1.23-.25-.6-.07-1.33-.61-1.84-.05-.04-.06-.16-.04-.23.19-.54.02-.85-.55-.97-.06-.01-.14-.31-.09-.43.16-.42.3-.77-.07-1.19-.16-.19-.11-.57-.14-.87-.02-.12 0-.24-.04-.35-.31-.85-.64-1.69-.94-2.55-.14-.38-.2-.78-.37-1.14-.09-.2-.33-.33-.58-.56.68-1.35 1.4-2.79 2.16-4.3.21.19.4.38.51.48.02.95-.41 1.85.44 2.57.09.07.1.24.14.36.32.98.77 1.89 1.44 2.68.06.07.02.21.04.31.21.89.43 1.78.65 2.67.05-.01.1-.03.14-.04-.02.18-.11.38-.06.54.2.73.46 1.44.67 2.17.15.54.15 1.14.38 1.63.43.89.51 1.95 1.29 2.68.79.74.92 1.79 1.17 2.76.32 1.23.57 2.47.8 3.72.15.82.21 1.65.34 2.48.14.91.34 1.81.42 2.73.05.57-.14 1.15-.12 1.73.03.75.12 1.51.26 2.25.05.28.25.61.48.77.78.57.27 1.19.1 1.77-.16.53-.04 1.02-.04 1.54 0 .83.56 1.28.94 1.85.31.46.66.89.68 1.48 0 .03.08.06.12.09.28.21.57.42.98.73.12-.1.34-.3.63-.55.26-.09.63-.22 1.1-.39.16.23.35.57.61.86.43.47.87.94 1.36 1.35.93.78 2.13 1.06 3.18 1.63.07.04.19 0 .27.03.25.09.5.17.73.3.23.13.42.33.66.51.04-.34.08-.59.13-1 .29.35.46.57.64.78.41.46 1.45.38 1.73-.15.06-.12-.05-.36-.14-.51-.15-.25-.37-.46-.53-.71-.04-.06.07-.21.09-.28-.53-.28-1.06-.6-1.62-.83-.62-.25-1.3-.36-1.9-.63-.6-.28-1.14-.69-1.71-1.03-.16-.09-.36-.12-.52-.2-.18-.09-.35-.22-.54-.3-.36-.15-.72-.27-1.04-.38.8-.37.94-1.21.28-1.9-.24-.25-.41-.55-.63-.82-.1-.12-.22-.25-.36-.28-.8-.16-1.3-.66-1.61-1.39-.05-.12-.14-.31-.23-.32-.53-.07-.76-.4-.92-.87-.17-.5-.49-.96-.62-1.47-.26-1.04-.46-2.09-.66-3.14-.1-.51-.12-1.03-.2-1.55-.22-1.52-.36-3.07-.7-4.56-.22-.95-.23-1.92-.48-2.87-.18-.71-.13-1.47-.24-2.19-.1-.6-.3-1.18-.46-1.78-.23-.87-.47-1.75-.7-2.62-.19-.71-.45-1.42-.54-2.14-.11-.83-.82-1.51-.52-2.44.07-.22-.24-.55-.35-.79.08-.94-.08-1.82-.48-2.65-.35-.74-.73-1.47-1.09-2.2-.03-.05.07-.15.09-.24.03-.11.08-.3.04-.33-.69-.48-.46-1.34-.83-1.95-.08-.13-.27-.2-.29-.32-.14-.48-.2-1-.43-1.43-.24-.45-.63-.83-1-1.2-.14-.15-.41-.16-.6-.27-.14-.08-.25-.23-.37-.34.1-.1.21-.19.31-.3.16-.18.39-.33.47-.54.59-1.53 1.14-3.08 1.74-4.61.33-.83.8-1.61 1.13-2.45.34-.89.64-1.8.86-2.72.33-1.43.56-2.88.87-4.32.1-.45.49-.87-.12-1.32.59-.29.79-.73.8-1.34 0-.4.23-.82.39-1.21.39-.92.81-1.82 1.19-2.74.09-.21.1-.46.15-.69.3-1.33.5-2.7.93-3.99.37-1.1.53-2.29 1.26-3.27.22-.29.35-.75.32-1.11-.09-1.35.32-2.59.82-3.79.32-.76.69-1.55 1.22-2.17.45-.53.94-1.11 1.71-1.3.33-.08.62-.38.92-.58-.07-.04-.14-.08-.2-.11.3-.02.76.07.86-.07.29-.45.77-.86.52-1.53-.1-.26-.04-.58-.04-.88 0-.31.04-.61.02-.92-.03-.45-.39-.87-.13-1.35.04-.07 0-.23-.05-.28-.71-.64-.6-1.63-.99-2.41-.24-.47-.48-1.1.02-1.71.26-.33.31-.88.34-1.34.08-1.08.94-1.68 1.67-1.98.66-.27 1.12-.75 1.73-1 .7-.28 1.41-.55 2.14-.71.2-.04.49.3.73.48.21.16.4.36.61.53.24.19.5.36.89.63.37-.16.55 0 .54.66-.01.75.36.92.97.5.28-.19.46-.22.73-.01.27.21.47.12.77-.07.5-.32 1.1-.49 1.68-.68.41-.14.85-.2 1.27-.32.46-.13.9-.33 1.36-.44.86-.22 1.57-.65 2.21-1.25.35-.33.56-.85 1.22-.87.23 0 .44-.48.57-.64.54-.36 1.12-.56 1.42-.97.51-.69 1.3-.93 1.94-1.06 1.28-.26 2.6-.47 3.91-.57 1.35-.11 2.69-.2 4.04-.29 1.16-.08 2.33-.2 3.49-.2 1.18 0 2.35.14 3.53.19.34.01.69-.14 1.04-.13.33 0 .66.17.99.17.59.01 1.19-.04 1.9-.07.23.17.56.41.9.66.46.33.93.65 1.37 1 .53.42 1.03.86 1.54 1.31.29.26.55.55.83.82.08.08.19.16.29.18.39.06.69.15.97.54.22.3.77.38 1.19.52.65.22 1.19.71 1.92.72.08 0 .21.1.22.15.03.64.52.96.92 1.34.16.16.37.27.54.42.17.15.33.32.49.49.1.11.17.3.29.35.69.31 1.38.65 2.1.87.44.14.97.22 1.4.11.32-.08.57-.5.84-.77.78-.78 1.54-1.58 2.36-2.32.56-.51 1.85-.19 2.33.44.28.35.69.59 1.01.92.23.23.48.5.57.8.21.75.48 1.52.46 2.28-.02.59-.45 1.17-.69 1.75-.06.14-.19.33-.14.42.31.57-.04 1.07-.1 1.6-.13 1.23-.09 2.46.59 3.53.23.36.53.77 1.09.83.29.03.54.3.82.43.27.13.57.2.85.33.14.06.3.15.36.28.54 1.08 1.05 2.17 1.58 3.25.43.87.91 1.71 1.31 2.59.29.64.44 1.35.73 1.99.49 1.08 1.05 2.13 1.59 3.18.42.81.85 1.62 1.28 2.43.64 1.2.64 2.58 1.12 3.83.22.56.13 1.28.43 1.77.39.64.4 1.38.75 2.02.29.53.37 1.18.49 1.79.04.19-.12.41-.14.63-.04.31-.12.65-.04.93.11.38.35.72.56 1.07.26.44.6.84.81 1.3.3.63.6 1.29.72 1.97.07.39-.06.82.32 1.08.26.18.58.27.87.42.21.11.49.2.6.39.54.86 1.09 1.72 1.54 2.63.42.83.73 1.72 1.09 2.59.2.48.42.96.65 1.5.28-.03.58 0 .64.49.03.27.24.6.46.74.45.27.2.52.09.81-.44 1.11-.83 2.25-1.35 3.33-.39.82-.96 1.56-1.43 2.35-.1.17-.12.4-.23.54-.4.61-.83 1.2-1.18 1.83-.65 1.19-1.32 2.38-1.84 3.63-.22.53-.79.99-.55 1.68.02.05-.05.16-.1.21-.91.84-1.22 2.04-1.78 3.08-.14.26-.1.62-.16 1-.34.12-.9 1.08-.86 1.62 0 .12 0 .27-.07.37-.55.83-.8 1.75-.98 2.71-.08.43-.42.8-.58 1.22-.26.66-.49 1.34-.68 2.02-.16.57-.29 1.16-.38 1.75-.14.91-.23 1.83-.37 2.74-.06.43-.05.82-.6 1.11-.38.2-.52.92-.69 1.43-.19.56-.25 1.16-.45 1.72-.07.19-.36.37-.58.43-.64.17-1.32.22-1.94.43-.23.08-.34.47-.53.7-.14.16-.29.36-.48.43-.43.17-1.03.13-.81.81-.27.28-.46.57-.74.75-.38.25-.8.46-1.23.6-1.2.4-2.42.76-3.63 1.12-.25.07-.53.03-.78.11-.42.14-.99-.27-1.31.33-.02.05-.25 0-.37-.03-.39-.1-.66-.07-.94.31-.26.36-.7.58-1.05.85.69 1.27 1.32 1.51 2.62 1.35 1.18-.14 2.12-.63 2.91-1.47.06-.07.15-.14.24-.16 1.61-.36 3.1-1.16 4.82-1.26.48.58.67.59 1.26 0 .2-.2.39-.4.62-.62.73.53 1.38-.03 2.07-.2.02 0 .03-.04.05-.04.86.05 1.15-.69 1.57-1.2.12-.15.15-.56.04-.69-.26-.29-.34-.53-.3-.92.07-.9.14-1.75.71-2.53.43-.58.7-1.28.99-1.95.12-.27.08-.6.15-.9.08-.35.18-.7.3-1.05.21-.62.43-1.22.42-1.92 0-.62.35-1.25.55-1.87.05-.15.08-.3.13-.44.15-.38.33-.75.46-1.14.2-.6.37-1.22.56-1.84.23-.28.56-.57.73-.94.45-.94.82-1.92 1.23-2.88.42-.98.85-1.96 1.24-2.95.06-.14-.07-.36-.01-.47.27-.5.55-.99.8-1.5.36-.74.71-1.48 1.04-2.23.13-.29.19-.61.32-.89.09-.19.31-.32.41-.51.33-.6.62-1.22.94-1.82.37-.69.79-1.36 1.14-2.07.23-.47.38-.99.58-1.48.3-.74.63-1.48.92-2.22.15-.38.24-.78.39-1.16.06-.16.19-.29.27-.41.56 1.02 1.11 2.01 1.63 2.96-.36.48-.51.91-.27 1.45.15.33.19.65-.18.95-.19.15-.22.51-.37.91-.5.1-.62.7-.77 1.23-.26.92-.63 1.79-1.08 2.63-.04.07-.05.15-.06.23-.05.49-.15.93-.49 1.34-.22.27-.16.75-.3 1.11-.09.25-.34.44-.43.69-.12.3-.15.64-.22.96-.02.11-.06.22-.1.32-.02.05-.11.08-.12.13-.18.74-.85 1.33-.71 2.18.01.08-.08.18-.11.27-.07.24-.13.48-.21.8-.71.27-1.01 1.49-.45 2.47-.56.02-.84.29-1.06.82-.32.76-.66 1.5-.86 2.32-.1.42-.45.76-.03 1.14-.37.43-.89.78-1 1.23-.17.72-.57 1.33-.75 2.04-.11.45-.4.86-.56 1.3-.1.31-.1.65-.15.97-.03.17 0 .43-.11.5-.57.36-.83.85-.84 1.51 0 .14-.1.29-.16.43l-.57 1.29c-.09.21-.18.42-.22.65-.04.21-.11.54 0 .64.51.45.26.92.08 1.37-.31.76-.15 1.35.54 1.73.11.06.29.02.43-.02.61-.17.86 0 .85.61-.01.46.24.67.53.71.25.68.52 1.28.69 1.9.13.49.12 1.01.23 1.51.18.84.41 1.67.62 2.5.02.07.05.15.05.22-.04.65-.04.65.39.99-.06.4-.54.88.22 1.18-.38.45-.17.84-.03 1.3.15.48.25.98.28 1.51.03.67.34 1.33.46 2 .13.74.1 1.52.28 2.25.19.78.31 1.57.79 2.31.38.59.37 1.45.47 2.2.17 1.32.23 2.66.47 3.97.19 1 .66 1.94.9 2.94.32 1.33.45 2.68.35 4.06zm22.93 11.89c-.07.55-.42 1.07-.71 1.57-.52.89-1.47 1.48-1.82 2.51-.04.12-.29.15-.36.27-.16.31-.31.64-.38.98-.16.83-.17 1.71-.44 2.5-.13.38-.71.61-1.09.92-.12.1-.29.2-.32.33-.09.41-.34.4-.67.38-.15-.01-.32.09-.47.17-.18.09-.36.21-.54.31-.03.02-.11 0-.11.01-.42.84-1.38.33-1.97.77-.31.23-.65.48-1.02.57-.73.18-1.49.26-2.24.39-.29.05-.58.14-.87.22-.11.03-.24.12-.34.1-.57-.17-1.18-.28-1.69-.57-.49-.28-.91-.5-1.47-.3-.09.03-.27.04-.3-.02-.67-.93-1.82-1.31-2.55-2.19-.25-.29-.6-.51-.26-.95.05-.06 0-.19 0-.29.04-.86.16-1.72.1-2.57-.06-.74-.34-1.46-.5-2.19-.04-.19 0-.41-.03-.6-.08-.39-.23-.77-.3-1.16-.1-.62-.14-1.24-.22-1.86-.06-.43-.31-.92-.18-1.27.35-.97.31-1.96.28-2.94-.02-.47-.02-.92-.26-1.42-.37-.74-.47-1.62-.66-2.44-.52-2.24-.45-4.57-.93-6.82-.22-1.07-.41-2.15-.54-3.24-.1-.81-.07-1.63-.12-2.44-.06-1.07-.15-2.15-.2-3.22-.02-.48.12-.98.06-1.45-.11-.77.08-1.54-.18-2.33-.21-.65-.02-1.41-.09-2.12-.09-.93-.27-1.84-.41-2.76-.01-.07-.06-.17-.04-.21.4-.64-.12-.87-.54-1.17.32-.34.7-.61.13-1.13-.24-.22-.08-.86-.14-1.3-.05-.39-.07-.81-.24-1.15-.32-.65-.13-1.48-.78-2.02-.13-.11-.07-.45-.1-.69q-.08-.66-.4-.9c-.05-.77-.1-1.43-.13-2.08 0-.15.09-.3.08-.45-.03-.38.04-.8-.45-1-.13-.05-.23-.24-.29-.39-.26-.63-.39-.68-1-.35-.06.03-.14.04-.07.02.08-.58.17-1.19.26-1.8 0-.06-.02-.15 0-.17.46-.36.38-1 .62-1.37.47-.75.61-1.48.62-2.3 0-.18.07-.42.19-.54.41-.4.46-.85.28-1.34.53-.36.9-1.36.79-2-.03-.19.04-.42.12-.59.23-.47.49-.93.74-1.4.13-.24.3-.46.38-.72.19-.61.34-1.23.54-2.01.4-.27.66-.9.13-1.86 1.1.09.8-.87 1.09-1.4.22-.39.38-.81.5-1.24.06-.24-.03-.51-.06-.81.49-.44 1.17-2.39 1.16-2.96.14-.38.28-.75.42-1.12.23-.58.46-1.16.7-1.73.25-.59.53-1.17.76-1.77.05-.14-.05-.34-.05-.34.38-.49.69-.89 1.06-1.39.2.61.35 1.13.53 1.63.33.92.7 1.83.99 2.76.12.38-.02.85.53.96-.35.87.19 1.46.43 2.12.04.34.02.7.13 1.02.31.91.33 1.9.92 2.74.27.38.21.98.35 1.46.09.33.27.63.53.91-.05.18-.21.4-.15.52.43.88.34 1.87.59 2.79.02.06.04.13.08.15.68.38.43.98.41 1.55 0 .25.19.5.35.89-.29.6.63 4.5 1.12 4.86-.03.58-.09 1.06-.05 1.54.02.22.29.42.33.65.21 1.03.36 2.08.57 3.11.2 1.01.44 2.01.69 3.01.06.22.28.38.39.59.07.14.11.33.09.48-.04.31-.21.63-.18.93.05.67.3 1.32-.09 1.97-.06.1.08.31.14.52-.8.36-.85 1-.68 1.84.16.79 0 1.65.14 2.45.14.82-.2 1.66.24 2.46.14.26-.08.7.03.99.35.92.28 1.87.33 2.82.05.82-.12 1.71.56 2.39-.16.67.64 1.11.43 1.83-.08.27.15.63.2.96.08.54.12 1.08.21 1.61.09.52.24 1.04.34 1.56.05.27.01.57.09.84.26.99.56 1.96.83 2.94.08.29.14.58.22.93-.65.57-.42 3.04.45 3.64-.19.51-.03.81.43 1.2.45.38 1.14.67 1.17 1.49.02.48.57.87 1.04.97-.02 1.09.04 1.17 1.11 1.55-.04.42-.04.7.47 1 .57.34 1.09.98 1.14 1.76.05.81.15 1.64.04 2.44z"/><path class="cls-1" d="M313.47 210.71c-.11-.09-.37-.13-.46-.07-.15.12-.32.37-.29.53.05.3.17.64.38.86.8.83 1.72 1.5 2.8 1.94.41.17.85.28 1.28.42l.12-.24c-.72-.7-1.43-1.41-2.17-2.09-.53-.48-1.09-.92-1.66-1.35zm17.88-71.59c.01-.39-.03-.76-.12-1.13-.1-.39-.2-.8-.37-1.16-.27-.59.02-1.43-.79-1.79-.04-.02-.06-.1-.06-.16.03-.52-.31-.7-.69-.76-.06-.52-.12-.98-.18-1.48.36-.27.34-.62.22-1.08-.11-.44-.5-.84-.3-1.36.02-.06-.1-.16-.13-.25-.12-.42-.27-.84-.34-1.27-.06-.34-.01-.7-.01-1.05.12-.41.29-.86.19-1.24-.21-.8-.48-1.6-.87-2.33-.33-.61-.46-1.27-.73-1.88-.16-.37-.4-.7-.6-1.03-.09-.62-.1-1.3-.3-1.91-.32-.95-.76-1.87-1.19-2.77-.15-.32-.49-.54-.66-.85-.23-.4-.36-.85-.57-1.27-.23-.48-.73-.97-.69-1.42.08-.96-.9-1.28-1.03-2.07-.02-.1-.33-.13-.49-.22-.21-.12-.42-.25-.6-.4-.21-.17-.58-.37-.57-.54.04-.75-.52-1.18-.86-1.68-.41-.61-1.06-1.01-1.71-1.44-.78-.5-1.65-.7-2.41-1.17-.46-.28-.92-.57-1.36-.9-.85-.65-1.66-1.35-2.53-1.98-.59-.43-1.24-.77-1.88-1.13-.26-.15-.62-.16-.83-.36-.87-.83-2.02-.9-3.09-1.08-.94-.15-1.93 0-2.89-.03-.98-.03-1.95-.12-2.93-.14-.4 0-.8.09-1.19.14a2.79 2.79 0 00-.9-.24c-.29-.03-.62.09-.86-.03-.49-.23-1-.02-1.52-.16-.77-.21-1.66-.02-2.49.01-.23 0-.47.09-.7.1-.43.02-.87-.05-1.28.03-.52.1-1.01.4-1.52.45-.73.07-1.48-.07-2.19.27-.18.09-.43.16-.62.12-.76-.16-1.36.14-1.86.51-.17-.1-.3-.23-.44-.24-.52-.05-.99.25-1.56.17-.44-.06-.92.23-1.38.36-.53.14-1.06.37-1.59.4-1.03.06-1.94.43-2.82.89-.63.32-1.22.72-1.79 1.13-.22.16-.34.47-.47.66-.22.08-.42.13-.59.23-.4.24-.79.51-1.18.78-.69.47-1.3 1.08-2.18 1.22-.07.01-.13.08-.2.13-.58.44-1.14.89-1.73 1.31-.32.23-.66.45-1.02.58-.61.23-1.25.35-1.85.59-.55.23-.8.97-1.52.97-.01 0-.03.03-.04.04-.42.53-.94 1.01-1.23 1.6-.27.56-1.09 1.04-.5 1.84-.42.28-.82.49-.78 1.09.03.32-.08.68-.21.98-.25.6-.58 1.18-.81 1.78-.14.35-.15.75-.23 1.13-.17.36-.27.73-.39 1.1-.12.36-.44.74-.38 1.06.1.55-.15.9-.38 1.31-.13.23-.27.51-.27.77 0 .55.07 1.1.13 1.65.02.19.19.38.16.55-.09.47-.3.93-.37 1.4-.08.57-.06 1.15-.07 1.72 0 .07.07.17.04.21-.36.45-.13.92-.07 1.38.08.63.17 1.26.28 1.89.09.51.2 1.03.33 1.53.04.15.19.27.28.41-.04 0-.07-.02-.11-.03.11.49.22.97.35 1.51-.51.1-1.12.3-.75 1.02-.23.22-.52.38-.56.57-.13.74-.23 1.49-.23 2.24 0 1.44.03 2.88.11 4.32.03.54.21 1.07.31 1.61.06.31.14.62.15.93.03.52 0 1.04.02 1.55.04.81.74 1.35.79 2.24.06.92.61 1.85 1.08 2.7.3.54.2 1.27.79 1.67-.22.58.22.75.6.94-.35.72.16 1.23.39 1.8.06.15.25.34.21.44-.2.52.16.81.39 1.16.17.27.3.57.42.87.05.13-.04.39.03.44.76.54.66 1.46 1.02 2.17.11.23.33.41.45.63.27.53.89.86.91 1.54 0 .04.08.08.12.12.42.46 1.19.55 1.34 1.31.02.1.29.19.46.21.44.06.86.1.91.69.01.11.2.24.33.31.44.24.99.36 1.32.7.78.8 1.73 1.12 2.78 1.31.4.07.6-.06.84-.35.24-.3.63-.48.91-.75.19-.19.39-.44.42-.68.03-.24-.21-.5-.24-.76-.08-.59-.75-1.32-1.33-1.4-.12-.02-.3 0-.33-.07-.38-.7-1.15-.87-1.72-1.31-.8-.61-1.76-1.02-2.33-1.92-.06-.1-.25-.11-.36-.2-.15-.12-.34-.23-.43-.4-.38-.74-.67-1.53-1.11-2.23-.41-.67-.74-1.31-.87-2.1-.09-.53-.17-1.19-.88-1.41-.11-.03-.19-.26-.23-.42-.11-.37-.15-.75-.28-1.11-.16-.46-.42-.88-.57-1.34-.3-.92-.54-1.87-.85-2.79-.18-.54-.57-1.04-.64-1.59-.15-1.1-.42-2.14-1.08-3.05-.07-.1-.03-.27-.04-.41-.02-.36-.02-.73-.07-1.09-.05-.34-.2-.67-.25-1.02-.05-.32.04-.66-.04-.97-.29-1.18-.61-2.35-.92-3.53l.23-.19c.57.36 1.13.73 1.71 1.07.12.07.31.04.45.11.3.15.72.27.85.52.29.57.73.84 1.28.56.35-.17.53-.11.69.25.23.51.79.55 1.15.4.39-.17.52-.1.69.21.05.1.16.2.27.22.58.15 1.15.35 1.74.41.9.09 1.81.05 2.71.14.37.04.78-.12 1.01-.04.54.18.91.1 1.16-.21.41.09.72.2 1.04.2.38 0 .77-.15 1.15-.11.77.08 1.53.27 2.29.38.54.08 1.07.08 1.42.63.09.14.45.1.68.16.35.09.69.21 1.05.29.31.07.63.12.95.17.09.01.18-.03.26 0 .57.12 1.14.28 1.71.38.27.05.55 0 .94 0 .46.37.95.41 1.57.11.29.07.59.07.88.06.07 0 .15-.03.22-.03.82.06 1.68.27 2.46.11.47-.1.81 0 1.22.04.2.03.43-.1.63-.08.88.11 1.75.3 2.63.38.47.04.96-.1 1.44-.11.69-.01 1.38.05 2.07.01.35-.02.68-.18 1.15-.31.65.36 1.26.01 1.73-.5.32.1.56.22.81.24.38.03.76 0 1.14 0 .64-.03 1.28.27 1.92-.15.27-.17.76-.27 1.01-.13.47.25.85.01 1.27.03.68.03 1.04-.68 1.86-.51 1.33.27 2.67-.23 3.98-.5.75-.15 1.49-.29 2.25-.39.37-.05.71-.31 1.13-.51.47.05 1.01.16 1.55.14.28-.01.53-.31.82-.42.7-.24 1.42-.41 2.11-.68.28-.11.58-.37.69-.64.16-.36.31-.42.62-.26.45.23.79-.02 1.12-.27.12-.09.15-.32.28-.37.58-.24 1.18-.46 1.78-.65.11-.03.37.07.39.15.1.41.14.82.2 1.24.07.49.13.97.19 1.46.01.21-.02.46-.05.71-.03.2.02.51-.09.59-.66.46-.61 1.24-.89 1.86-.09.2-.04.47-.11.69-.19.69-.43 1.38-.6 2.08-.09.36-.09.74-.12 1.11 0 .13.05.27.06.4.02.25.13.61 0 .75-.53.58-.52 1.39-.4 1.94.19.88-.11 1.7.02 2.53.04.24-.05.49-.07.74-.08.82-.05 1.63.44 2.34.25.36.61.47.94.14.82-.81 1.16-1.89 1.5-2.95.12-.38.23-.79.46-1.11.28-.38.42-.7.24-.93.16-.43.28-.71.38-1.01.04-.13.04-.27.08-.41.17-.67.35-1.33.51-2 .03-.13-.03-.29-.05-.43-.01-.11-.07-.28-.03-.32.68-.52.43-1.35.65-2.02.27-.81.88-1.58.63-2.53-.01-.04.04-.12.09-.15.57-.33.43-.85.36-1.35-.03-.21-.05-.45 0-.65.21-.68-.06-1.17-.45-1.61zm-11.59-1.88c-.97-.58-1.89.08-2.83.1-1.02.02-2.05.32-3.06.53-.93.19-1.86.4-2.78.63-.19.05-.34.23-.57.41-.3.05-.73.15-1.17.2-.71.09-1.43.19-2.15.24-.36.02-.73-.09-1.1-.1-.4 0-.86-.09-1.18.07-.62.32-1.11.26-1.7-.22.28-.45.57-.9.85-1.37.18-.3.32-.64.53-.92.08-.1.31-.14.47-.13.83.05 1.53-.19 2.09-.83.31-.36.64-.73 1.04-.98.25-.17.64-.12.96-.19.97-.21 1.93-.44 2.9-.66 1.05-.24 2.09-.54 3.15-.67.44-.06.93.24 1.39.39.64.21 1.28.43 1.9.69.19.08.36.32.43.52.23.74.25 1.55.89 2.13.02.02-.02.1-.04.18zm5.85-11.36c-.25.25-.75.39-.57 1.01.11.39.02.84.02 1.24-.38-.2-.63-.79-1.25-.62-.03 0-.09-.02-.11-.05-.46-.66-1.36-.77-1.82-1.41-.91-1.28-2.35-1.81-3.57-2.68-1.1-.78-2.36-1.58-2.67-3.17-.23-1.19-.61-2.36-1.04-3.51-.22-.59-.67-1.1-1.01-1.64-.06-.1-.11-.22-.18-.31-.18-.24-.37-.48-.58-.7-.34-.36-.71-.71-1.06-1.06-.19-.19-.39-.38-.57-.59-.59-.67-1.16-1.35-1.76-2-.76-.83-1.5-1.67-2.31-2.44-1-.95-1.62-1.94-1.23-3.41.15-.57-.05-1.23-.1-1.84-.01-.15-.05-.3-.07-.45-.66-.1-1.1.31-.87.97.16.46.01.81-.08 1.17-.37 1.51-.02 2.8.96 3.98.85 1.03 1.68 2.08 2.51 3.13.45.57 1.02 1.08 1.31 1.72.47 1.02 1.38 1.53 2.1 2.27.37.37.62.86.92 1.29 1.02 1.5 1.18 3.35 1.95 4.96.46.95 1.1 1.5 1.89 2.03.64.43 1.31.84 1.98 1.22.3.17.64.29.98.38.87.25 1.2 1.13 1.89 1.59.52.34.69.82.73 1.43.02.26.31.5.49.74.04.06.18.07.19.12.15.85.9 1.22 1.42 1.76.15.16.55.07.96.11.29.43.16 1.08.23 1.71.09.79-.61 1.29-.55 2.03 0 .06-.18.17-.29.2-.68.19-1.37.36-2.05.57-.14.04-.23.24-.25.27-.55.16-1.02.29-1.41.4-.26-.77-.45-1.52-.77-2.19-.15-.31-.55-.54-.88-.73-.75-.41-1.52-.78-2.29-1.15-.63-.3-1.24-.34-1.94-.07-.69.27-1.46.33-2.19.49-1.2.26-2.4.61-3.62.75-.82.09-1.42.42-1.99.94-.26.24-.55.43-.78.7-.49.57-1.15.46-1.72.35-.45-.08-.58.12-.71.39-.57 1.18-1.14 2.36-1.68 3.55-.18.39-.36.65-.83.41-.08-.04-.22-.07-.28-.03-.77.52-1.61.1-2.41.19-.07 0-.19-.09-.22-.07-.64.62-1.19-.05-1.78-.11-.51-.06-1.02-.14-1.54-.14-.18 0-.37.19-.55.29-.55-.69-.53-.64-1.3-.28-.29.14-.79.16-1.04 0-.65-.41-1.2-.38-1.8.07-.36-.39-.75-.56-1.22-.15-.06.05-.2.05-.29.02-.87-.33-1.78-.29-2.64-.07-.62.16-1.16.37-1.84.13-.38-.14-.89.15-1.34.14-.42 0-.83-.14-1.24-.23-.29-.06-.59-.14-.85-.26-.24-.12-.47-.24-.72-.34-.37-.16-.73-.35-1.11-.43-.71-.15-1.43-.23-2.15-.31-.81-.09-1.63-.14-2.44-.21-.45-.04-.9-.03-1.34-.13-1.04-.25-2.07-.55-3.21-.85.27-.31.41-.52.6-.67.63-.49.72-1.16.73-1.89 0-.22.09-.46.19-.65.42-.77.84-1.53 1.3-2.27.37-.59.75-1.18 1.19-1.71.27-.32.62-.57 1.13-.31.29.14 1.57-.51 1.58-.83.03-.53.53-.36.72-.65.92-1.41 1.63-2.91 2.1-4.53.23-.8.63-1.57 1.04-2.31.49-.9 1.07-1.75 1.63-2.62.1-.15.27-.25.42-.36.72-.52 1.1-1.2 1.42-2.05.3-.8.02-1.89.97-2.41.52-.29 1.09-.48 1.61-.76.35-.19.72-.4.96-.7.62-.77 1.46-.97 2.36-1.02.23-.01.47.18.7.28q.63.26 1.12-.18c.58.38 1.41.12 1.74-.52.24-.46.6-.87.78-1.35.25-.68.5-1.39.17-2.13-.03-.07-.1-.18-.14-.18-.92.09-1.26-.78-1.91-1.14-.61-.33-1.21-.69-1.85-.96-.62-.26-1.28-.46-1.94-.63-.23-.06-.49.04-.74.07.15.19.26.45.46.56 1.28.73 2.59 1.42 3.88 2.15.31.18.59.43.91.66-.22.38-.42.73-.63 1.09-.32-.09-.62-.2-.93-.27a.55.55 0 00-.33.05c-.42.18-.9.29-1.25.56-.68.53-1.57.56-2.25 1.04-.3.21-.52.55-.71.88-.34.59-1 .64-1.5.81-.89.29-1.47.87-1.98 1.56-.31.41-.52.9-.76 1.37-.11.23-.2.48-.24.72-.05.36-.19.56-.52.77-.3.2-.4.71-.59 1.08-.63 1.24-1.22 2.5-1.91 3.71-.38.68-.95 1.24-1.36 1.91-.37.59-.61 1.26-.95 1.88-.23.42-.51.84-.82 1.2-.12.15-.41.18-.63.21-.55.1-1.15.05-1.63.29-.44.22-.79.68-1.1 1.09-.47.62-.89 1.28-1.28 1.95-.22.38-.36.82-.51 1.24-.24.66-.48 1.32-.66 1.99-.09.33-.08.7-.05 1.04.06.74-.1.96-.73 1.3-.73.39-1.41.86-2.17 1.34-.27-.31-.66-.36-1.15-.06-.25.15-.62.1-.93.17-.32.07-.63.17-.98.27-.14-.49-.42-.61-.93-.48-.27.07-.63-.17-.93-.3-.25-.1-.49-.24-.71-.39a.487.487 0 01-.21-.31c-.1-.84-.07-1.67.04-2.52.09-.62 0-1.27 0-1.9 0-.28.12-.55.13-.83.01-.88-.01-1.77 0-2.65 0-.59 0-.63-.55-1.06.52-.64.67-1.63.41-2.08.17-.43.37-.77.44-1.14.14-.7.17-1.43.33-2.13.11-.44.37-.85.58-1.27.29-.6.71-1.16.85-1.79.14-.6.47-.96.83-1.4.43-.51.66-1.19.97-1.8.49-.96.84-2.02 1.49-2.86.56-.73 1.18-1.47 2.16-1.87.91-.37 1.67-1.13 2.49-1.72.58-.41 1.17-.82 1.76-1.23.52-.36 1.15-.62 1.54-1.09.73-.87 1.87-1.05 2.67-1.76.16-.14.33-.27.42-.34.6-.15 1.15-.27 1.68-.43.71-.21 1.4-.52 2.12-.63.63-.1 1.3.03 1.95.06h.65c.54-.03 1.09-.05 1.63-.1.33-.03.66-.12.99-.19.73-.14 1.47-.3 2.2-.4.71-.1 1.43-.12 2.14-.21.81-.11 1.61-.25 2.42-.4 1.66-.31 3.33-.37 5.01-.31 1.04.04 2.07.16 3.1.18.59.01 1.19-.17 1.77-.11.76.07 1.51.31 2.27.45.91.17 1.36 1.01 2.14 1.38.52.24.99.59 1.47.91.38.25.72.59 1.13.79.72.37 1.17 1 1.72 1.54.66.63 1.33 1.26 2.02 1.85.3.26.67.56 1.03.61.8.1 1.28.72 1.84 1.13.44.32.56 1.07.84 1.61.07.14.23.34.35.34.44 0 .53.28.65.62.06.19.27.35.45.47.36.23.77.38 1.11.63.13.09.09.38.19.55.47.8.99 1.58 1.42 2.4.23.45.27 1 .48 1.46.45.96.86 1.96 1.47 2.81.46.64.59 1.35.87 2.03.26.63.18 1.19-.08 1.8-.1.23.07.58.13.93zm-48.98-81.9c.03.59-.24 1.21.23 1.74.03.03-.07.14-.07.22v.99h.17c-.3.59.03 1.89.56 2.22.02 1.17.76 1.98 1.52 2.66.91.82 2 1.44 3.01 2.16.1.07.15.22.21.34.42.8 1.09 1.38 1.93 1.62.27.08.62.16.93.17.46.03 1.01.04 1.19-.5.15-.49-.23-.82-.62-1.04-.87-.48-1.74-.9-2.45-1.67-.48-.52-.97-1.07-1.51-1.55-.73-.64-1.24-1.4-1.33-2.38-.03-.27.04-.54 0-.81-.11-.87-.24-1.74-.36-2.61-.02-.17-.07-.4.01-.52.34-.49.17-.9-.19-1.32.7-.36.45-1 .45-1.54 0-.98-.61-1.93-.14-2.94.02-.05.01-.12 0-.18-.26-.83-.15-1.67-.05-2.51.05-.37.08-.74.11-1.07.11-.26.22-.5.3-.75.08-.22.15-.44.2-.66.15-.62.28-1.23.43-1.85.16-.68.2-1.41.75-1.95.45-.43.91-.88 1.25-1.39.27-.4.52-.36.8-.26.06.73.16 1.42.15 2.11 0 1.31-.19 2.7.49 3.84.52.87.54 1.91 1.21 2.71.52.62.55.7 1.11.03.29.28.58.55.85.83.4.41.89.6 1.45.69.49.08.97.22 1.46.34.55.24.41 1.32 1.41 1.25.04 0 .07 0 .11-.01-.04 0-.08 0-.11.01-.31.02-.6-.03-.89-.02-.16 0-.42.15-.45.28-.3 1.31-.65 2.6-1.33 3.77-.22.38-.45.76-.68 1.14-.05-.07-.1-.14-.16-.21-.26.08-.57.1-.76.27-.51.45-1.05.92-.88 1.73 0 .03-.03.07-.05.11-.34.79.35 1.78 1.2 1.68.35-.04.56 0 .81.27.38.41.7.3.96-.19.21-.42.31-.91.85-1.12.16-.06.25-.46.26-.71 0-.31-.19-.64-.14-.95.11-.75.29-1.49.47-2.23.2-.77.43-1.53.65-2.3.16.37.2.72.28 1.06.06.27.17.53.26.8.19.59.34 1.25.94 1.55.63.32 1 .88 1.42 1.38.36.44.67.97 1.24 1.1.31.07.83-.02 1-.24.22-.27.29-.77.22-1.13-.11-.59-.36-1.11-.89-1.56-.55-.47-.85-1.24-1.27-1.89.3-.34.22-.65-.03-.96-.29-.35-.37-.74-.15-1.01.36 0 .62.03.87 0 .41-.06.83-.09 1.2-.25.39-.17.83-.39 1.06-.72.43-.61.73-1.32 1.08-1.99.33-.63.62-1.29.99-1.89.2-.33.6-.53.8-.86.35-.56.63-1.18.94-1.77.05-.1.11-.23.2-.27.39-.17.48-.43.35-.81-.03-.09 0-.27.07-.33.74-.57.59-1.42.73-2.18.13-.71.21-1.42.31-2.13.06-.01.12-.03.18-.04.14.32.29.64.41.98.4 1.12 1.02 2.14 1.1 3.4.09 1.39.49 2.76.76 4.14.06.31.15.61.23.92.07.3.18.6.18.89 0 1.06-.02 2.12-.1 3.18-.08 1.03-.24 2.05.07 3.07.06.21.02.49-.06.7-.39 1-.21 1.99-.06 3.02-.14.2-.4.42-.46.68-.18.84-.27 1.69-.41 2.54-.03.19-.1.38-.2.54-.19.29-.41.56-.65.81-.18.19-.39.37-.63.47-.85.39-1.75.61-2.69.73-.49.06-1.09.4-1.44.22-.95-.47-1.61.28-2.39.42-.83.15-1.6.7-2.38 1.11-.1.05-.16.44-.1.49.31.25.66.49 1.03.64.28.12.62.12.93.18.67.13 1.35.38 2.01.35.64-.03 1.35-.23 1.89-.57.82-.52 1.71-.49 2.57-.55 1.06-.07 1.82-.42 2.22-1.42.52.07 1.26-.39 1.62-.91.08-.12.15-.24.18-.37.09-.31.23-.62.43-.86.43-.51 1.05-.9 1.35-1.47.36-.68.5-1.48.66-2.24.08-.38-.04-.8-.05-1.2 0-.71.2-1.5-.04-2.11-.5-1.27-.3-2.6-.62-3.87-.13-.53-.16-1.08-.27-1.61-.1-.47-.57-.87-.26-1.43.03-.05-.1-.17-.11-.26-.11-.57-.27-1.14-.3-1.72-.04-.56.09-1.13.07-1.7-.06-1.23-.17-2.46-.27-3.69-.05-.62.06-1.35-.23-1.84-.33-.55-.4-1.04-.35-1.62 0-.09-.09-.18-.11-.27-.19-.89-.98-1.36-1.49-2.01-.68-.87-1.83-.84-2.74-1.27-.17-.08-.33-.19-.48-.31-.26-.2-.47-.5-.76-.61-.37-.14-.86-.04-1.18-.23-.67-.41-1.4-.52-2.13-.59-.42-.04-.86.13-1.3.14-.88.02-1.77-.04-2.65.01-.9.06-1.79.21-2.68.32v-.03c-.22.02-.44.03-.65.05-.17.02-.34.08-.51.09l-2.38.18a.21.21 0 00-.11.04c-.77.44-1.56.84-2.3 1.33-.5.33-.94.76-1.39 1.17-.24.22-.6.46-.65.73-.11.6-.44.93-.89 1.28-.67.53-1.12 1.3-1.99 1.61-.27.1-.48.54-.59.87-.12.32-.07.7-.12 1.05-.19 1.28-.65 2.39-1.94 2.96-.11.05-.2.25-.2.38 0 .78-.43 1.41-.71 2.08-.21.5-.57.92-.37 1.52.03.09-.01.26-.08.31-.43.3-.44.74-.38 1.18.12.81-.05 1.61-.03 2.41.01.59.02 1.18.05 1.77z"/><path class="cls-1" d="M292.11 40.41s.07 0 .11-.01c-.04 0-.08 0-.11.01zm23.95 123.1s-.14-.07-.22-.06c-.34.01-.69.1-1.02.04-.47-.08-.65.14-.85.41-.21.15-.45.27-.64.45-.23.21-.37.52-.63.67-.67.4-1.36.76-2.07 1.09-.56.26-1.18.42-1.74.69-.61.31-1.21.66-1.76 1.06-.63.45-1.25.82-2.07.81-.62 0-1.24.08-1.85.14-.5.04-1.03.2-1.5.11-.49-.09-.73.07-.86.24-.38.05-.63.06-.87.12-.96.23-1.92.52-2.89.71-.57.11-1.18.15-1.76.11-.6-.04-1.19-.29-1.79-.32-1.06-.06-2.12 0-3.17-.03-.5 0-1-.03-1.48-.11-.8-.13-1.59-.36-2.4-.44-.98-.1-1.97-.11-2.95-.11-.18 0-.43.18-.51.34-.06.11.08.41.21.5.26.17.57.28.87.36.92.24 1.84.45 2.77.67.71.16 1.43.28 2.13.47.48.13.94.45 1.42.48.82.05 1.64.48 2.47.04.04-.02.15.05.18.1.22.38.49.19.77.11.48-.13 1.03-.42 1.46-.3 1.03.29 2.03.11 3.03-.02 1.38-.18 2.73-.57 4.11-.7.6-.06 1.16-.44 1.87-.16.32.13.9-.11 1.38-.05.11.01.25-.21.28-.23.36-.02.65.02.91-.06.75-.23 1.73.16 2.23-.78 0-.02.14.05.2.04.55-.14 1.22-.04 1.49-.73.62.23 2.87-.8 2.99-1.33.19.02.46.14.55.06.46-.44 1.31-.49 1.37-1.35 0-.13.17-.32.29-.35.74-.18.79-.78.7-1.3-.09-.49-.42-.93-.65-1.38zm-1.2-134.9c.04.41.76 1.74 1.1 1.87.1.04.23-.03.34-.01.66.12 1.39-.24 2.01.31.08.07.44-.06.59-.19.47-.41.91-.46 1.34-.15.53-.1.99-.18 1.51-.28.14.21.27.51.48.73.24.25.56.44.84.65.09-.38.23-.76.24-1.15.01-.34-.13-.68-.19-1.02-.09-.44-.17-.87-.26-1.31h-.01c-.06-.31-.09-.63-.19-.92-.19-.55-.39-1.09-.64-1.62-.13-.28-.35-.54-.57-.77-.18-.19-.44-.31-.62-.51-.24-.28-.39-.68-.67-.89-.33-.25-.94-.59-1.13-.46-.62.41-1.59.02-1.98.87-.73.05-1.32.38-1.75.97-.09.12-.24.21-.3.34-.14.32-.25.65-.35.99-.05.18-.08.39-.06.58.08.66.21 1.31.28 1.97zm-44.26 4.14c.83 0 1.45-.5 2.06-.98.24-.18.52-.4.62-.66.25-.67.48-1.37.58-2.07.15-1.09.3-2.17.12-3.31-.11-.66-.49-1.07-.73-1.6-.25-.55-.99.29-1.38-.27 0-.01-.28.15-.42.24-.13.08-.27.16-.39.26-.17.15-.33.32-.48.49-.1.11-.16.26-.26.36-.25.25-.56.44-.76.72-.59.84-1.2 1.68-1.69 2.57-.43.77-.75 1.6-1.04 2.43-.09.27.13.64.08.94-.07.42.1.61.46.67.4.06.62.24.77.62.16.43.44.45.77.13.34-.33.69-.66 1.01-.97.31.2.5.42.7.42zm28.37 91.94c.55-.21.57-.63.44-1.1-.12-.44-.34-.88-.35-1.32-.02-.68-.47-.88-.96-.99-.48-.11-.98-.08-1.47-.12-.54-.04-.81.2-.92.73-.35 1.68-1.22 2.97-2.8 3.76-.63.32-1.17.81-1.78 1.16-.46.27-.96.46-1.45.67-1.27.53-2.71.71-3.62 1.94-.23.31-.61.5-.93.74-.24.18-.41 1.26-.09 1.75.51.82.92 1.65 1.82 2.24.6.38 1.15.34 1.68.35.58 0 1.17-.3 1.73-.53.8-.32 1.6-.62 2.35-1.04.82-.45 1.6-.9 2.54-1.13 1.38-.34 2.52-1.14 3.1-2.54.18-.44.42-.85.6-1.28.32-.79.68-1.55.6-2.46-.04-.47-.22-.55-.58-.57.03-.11.04-.23.08-.25zm-1.02 2.32c-.23.61-.73 1.12-.98 1.72-.36.88-1.13 1.32-1.81 1.86-.26.21-.66.26-1.01.36-.91.28-1.81.56-2.72.82-.13.04-.27-.02-.41-.01-.21.01-.49-.04-.61.08-.42.41-.92.56-1.46.74-.66.22-1.22.28-1.68-.21-.34-.37-.63-.78-.9-1.14.47-1.02 1.25-1.67 2.19-2.1.41-.19.87-.28 1.32-.34.93-.12 1.71-.58 2.51-.99.63-.33 1.35-.52 1.9-.94.45-.34.72-.93 1.07-1.38.7-.89.8-1.95 1.24-2.89.32-.69.8-.12 1.28-.21-.37 1.06.19 1.76.62 2.4-.19.79-.28 1.54-.55 2.23zm4.03-10.95c-.34-.34-.8-.61-1.04-1.01-.53-.87-1.4-1.05-2.25-1.3-.06-.02-.14.03-.4.11.31.34.55.59.78.85.25.29.53.56.74.87.23.34.44.7.57 1.09.08.23.04.73-.06.76-.52.17-.7.51-.76 1-.02.13-.14.27-.25.37-.44.41-1.16.41-1.84.03-.74-.41-1.5-.48-2.33-.13-.17-.75-.25-1.42.36-1.99.63-.59 1.11-1.27 1.33-2.15.13-.52-.37-.43-.45-.71 0-.03-.39-.03-.48.07-.51.55-.98 1.14-1.47 1.71-.19.22-.52.4-.56.63-.11.72-.13 1.47-.14 2.2-.01.66.36 1.08 1 1.16.83.1 1.67.16 2.51.2.41.02.85-.13 1.25-.06.94.15 1.71-.28 2.49-.66.28-.14.43-.53.87-.38.08.03.29-.23.37-.38.19-.35.34-.72.49-1.09.04-.1.08-.26.03-.32-.23-.3-.48-.58-.75-.85zm-16.1 19.42c-.58.2-1.15.44-1.68.75-.29.17-.61.47-.67.77-.06.3.15.69.32.99.07.11.4.14.58.1.36-.08.7-.24.98-.34-.03-.01-.21-.08-.52-.21.2-.14.35-.22.46-.32.4-.36.95-.59 1.36-.33.27.17.28.78.39 1.2.06.24.1.49.13.74.07.48.44.4.65.25.23-.16.45-.47.49-.74.13-.83.03-1.61-.63-2.27-.57-.57-1.14-.83-1.86-.57zm8.52-1.27c-1.46-1.01-3.64-.14-3.95 1.59-.03.15.06.36.17.48.07.07.33.07.41 0 .24-.23.5-.47.63-.77.4-.88 1.09-.92 2.23-.35-.36.31-.63.55-.9.78-.11.09-.32.15-.34.26-.07.3-.18.81-.06.89.39.24.88.32 1.33.45.02 0 .07-.04.1-.06.32-.37.69-.66.86-1.17.42-1.2.39-1.5-.47-2.1zm-97.61-6.13c1.95 0 3.06.69 3.06 1.76 0 1.85-1.67 2.39-2.41 2.41-3.13.1-5.25.08-8.38.09-2.8.01-2.65.61-2.65 3.31 0 1.84.03.88 0 2.71-.02 1.53.6 3.2 1.91 3.97 4 2.34 6.62 4.05 10.13 6.78.91.71 1.93 2.53 1.2 3.72-.97 1.59-1.69 3.32-2.64 4.91-.75 1.25-3.43.22-4.36-.67-1.04-.99-4.56-4.56-5.36-5.34-.39-.38-.77-.07-.86.15-.36 1.34-.86 2.61-2.12 4.24-2.7 2.66-3.4 3.16-7.33 3.96-6 1.22-11.79.87-17.02-2.82-6.03-4.25-4.57-12.42 1.18-15.81 4.22-2.49 6.18-2.87 12.2-2.87 2.41 0 3.01-.88 3.01-2.73 0-1.95.32-3.43-2.22-3.43-4.67 0-6.54-.18-11.21-.09-1.03.02-3.89.54-4.94.39-2.69-.37-3.19-3.72-.3-4.64.74-.23 3.24-.21 3.99-.21 3.41 0 3.89.14 6.99.14 6.42 0 7.71.98 7.71-2.73 0-1.11.06-.23.06-1.48 0-2.25-2.67-2.55-4.43-2.55-3.27 0-6.36-.19-8.47.04-2.43.26-4.68.9-6.49-.04-1.44-.74-1.3-3.06-.97-3.8.48-1.09 1.67-1.38 2.73-1.38 3.74 0 4.27-.1 8.02-.1h7.11c1.42 0 2.48-.22 2.48-2.08-.03-1.53-.05-5.36 2.33-5.36 1.67 0 4.38-.16 6.02.05.55.07 1.32 1.02 1.4 1.64.2 1.64.11 1.77.07 3.43 0 1.71 1.07 2.54 1.94 2.73 2.36.52 5.9.19 8.59-.09 2.07-.21 3.24.55 3.2 2.22 0 1.62-.93 2.56-3.38 2.56-3.75 0-3.77.16-7.57.16-2.03 0-2.58 1.04-2.57 2.69 0 .71.03.2-.01 1.72-.04 1.5.87 2.55 2.43 2.51 1.69 0 6.19-.09 7.95-.09zm-20.6 22.46c0-1.02-.07-2.77-.07-3.78 0-1.08-1.01-2.05-1.37-2.27-1.99-1.24-5.27-.31-6.17 1.91-.59 1.46-.66 3.29-.49 4.9.14 1.26.48 2.6 1.31 3.54 1.74 1.96 4.83 1.58 6.02-.8.6-1.37.77-2.04.77-3.49zm-124.89.62c-.2-.28-.37-1.1-.15-1.36.82-.95 2.78-.64 3.36-.32 5.63 3.11 13.97 3.31 18.94 1.72 2.89-.92 4.93-2.61 6.16-5.56 1.46-3.31-.53-10.46-6.16-10.6-2.86-.32-6.54-.07-8.57.77-2.84 1.16-3.44 2.36-5.19 3.95-1.45 1.32-3.24 1.43-5.14.78-1.96-.67-2.62-1.31-3.9-2.03-1.63-.92-2.97-3.06-1.5-4.33 5.09-4.4 10.27-8.53 15.37-12.91 2.17-1.86 3.64-3.38 5.83-5.1.96-.75.99-1.66-.26-1.72-.66-.03-12.89.06-17.93.12-.79 0-1.43-.61-1.45-1.4-.01-.61-.13-1.27.2-1.76s1.48-.59 2.27-.59c8.81-.04 17.63-.04 26.44 0 1.18 0 2.38.26 3.52.51 2.52.54 3.25 4.45 1.66 6.24-2.36 2.66-3.52 3.37-6.95 6.42-1.74 1.55-3.14 3.41-5.13 5.32-.31.3-.11.82.31.84 1.58.07 4.05.16 6.74.46 4.61.52 9.97 3.03 12.09 7.52 2.01 4.26 1.83 8.43-1 12.25-3.59 4.83-8.68 7.18-14.51 7.87-8.65 1.02-16.86.85-23.61-5.36-.29-.26-.94-1.06-1.41-1.71zm548.37-7.97c-.64-.32-.65-1.43-.01-1.76 1.76-.9 4.83-2.92 6.45-4.39.8-.8 3.15-2.45 3.15-6.15-.05-2.34.84-4.38-2.73-4.38-4.68 0-6.02-.07-10.69 0-.75.01-1.37.65-1.38 1.4-.07 8.34-.02 13.34.06 21.68.02 1.99 1.69 3.43 4.08 3.67 1.66.17 3.33.18 5 .18 6.28.02 9.21 0 15.49.02 1.78 0 2.2.72 2.2 2.17 0 .91-1.47 1.42-2.11 1.42-9.62.04-17.04.07-26.65-.08-3.36-.05-6.55-1.01-8.11-4.44-.53-1.16-.73-2.56-.74-3.86-.07-7.28-.16-12.46-.06-19.74.03-1.96-1.71-2.75-2.7-2.75-2.17 0-2.78.03-4.58.03-.55 0-2.59.12-3.2-.77-.43-.63-.43-2.23.9-2.57.79-.2 1.89-.24 2.56-.26 2.06-.08 2.56-.16 4.75-.39 1.21-.13 2.13-.66 2.13-3.01v-3.28c0-1.37-.01-2.04-.01-3.3-.06-1.61 1.71-2.5 3.57-2.5 1.16 0 1.3-.02 2.59-.02 3.15 0 4.85.36 4.85 3.15 0 3.07.06 2.32-.04 5.38-.07 2.14.56 3.78 3.59 3.78 4.77 0 5.29.07 10.07.07 2 0 6.29-.17 8.32.07 3.38.39 6.08 3.08 5.03 7.27-1.33 4.27-4.47 8.18-9.72 11.26-2.94 1.61-4.75 2.38-7.34 2.66-1.33.14-3.29.14-4.68-.56zm127.88-23.62c-.1-2.62-2.12-4.06-4.61-5.08-3.08-1.26-4.77-1.82-15.03-1.26-2.33 0-3.85.48-3.85-2.97.14-1.61-1.08-2.99-2.96-2.63-1.49.29-3.94.24-5.45.04-3.39-.47-3.43 1.5-3.62 4.2-.32 4.38.1 7.5-.72 11.79-.72 2.57-.72 4.17-4.73 8.42-.37.25-1.95 1.36-2.25 2.25-.32.96-.96 3.93 3.45 2.81 3.97-1.89 5.35-2.25 7.86-5.85 1.28-1.84 2.91-.94 4.17.32 2.98 2.97 2.86 3.63 3.85 7.78.48 2 3.99 2.05 5.77.88.71-.46 1.23-.85 1.84-1.3-.11.25-.24.5-.4.73-4.64 6.83-8.56 11.87-16.68 14.11-.49.14-1.39 1-2.09 1.66-.43.41-.63 1-.55 1.58.02.13.04.27.05.4.09.68.65 1.2 1.33 1.24.61.04 1.22.06 1.77-.09 3.65-1 7.33-1.95 10.85-3.29 5.67-2.15 9.95-4.44 13.73-9.21 5.96-7.52 8.62-17.09 8.26-26.54zm-14.68 11.87c-.06 0-.1.02-.15.03-.15-.19-.32-.39-.49-.59-1.44-1.2-4.57-3.93-9.38-5.93-1.68-.33-1.6-1.11-.88-2.49.23-.44.44-.87.62-1.31.26-.64.8-1.07 1.36-1.46 1.47-1.03 3.95-2.27 5.77-3.09.39-.17 1.06-.15 1.44.05.91.48 4.22 2.76 4.26 4.55.11 4.66-.85 10.16-2.54 10.24zm-195.83 10.61c.09-.54 2.04-1.35 2.53-1.58 3.16-1.31 6.17-2.61 10.29-5.19 5.55-3.47 9.79-7.09 14.08-11.64.61-.76 1.85-1.85 1.13-3.07-.63-.99-1.62-1.31-4.42-.72-7.94 1.66-8.35-1.58-13.45-.41-2.6.6-3.57 1.35-5.1 1.49-.69.06-1.85-.05-2.44-.77-1.55-1.9.81-4.43 3.7-4.43 3.87 0 2.99-.04 6.86.01 1.76.02 4.38-.46 4.38-3.03 0-1.87-.03-1.38 0-3.25 0-2.21 2.06-2.51 3.39-2.51 5.33 0 6.88-.56 6.88 4.21s-.7 4.51 4.49 4.59c2.59.04 2.46.24 5.03.61 3.27.47 5.89 2.4 4.68 6.46-2.79 5.66-7.79 9.64-10.75 11.2-.57.3-.18.7.19.76 1.19.17 3.1.08 3.79.14 4.25.36 5.17.84 8.57 3.57.81.65 1.56 1.36 2.35 2.13 1.12 1.1 1.34 3.49.59 4.86-1.08 1.98-3.46 4.23-5.86 4.03-.85-.07-1.64-.46-2.29-1.03a55.397 55.397 0 01-4.08-4.04c-1.85-2.05-2.14-2.64-4.11-4.6-1.04-1.04-2.39-1.04-2.62.26-.09.52-.12 1.17-.12 1.77 0 6.47-.05 8.55.03 15.03.02 1.7-2.07 2.88-3.87 2.87-5.18-.04-6.27.16-6.27-5.07v-10.04c0-.17 0-.43-.01-.73-.04-1.53-.83-3.41-3.61-2.02-3.09 1.55-6.08 2.52-12.18 2.14-.37-.02-1.02-.3-1.35-.47-.68-.36-.67-1.16-.41-1.53zm-480.09-2.2c.31.01.49.3.43.61-.25 1.22-.5 2-.85 3.01-1.74 5.05-3.93 9.06-8.84 11.76-4 2.19-8.32 2.79-12.74 2.59-3.11-.14-6.27-.49-9.01-2.26-4.08-2.64-5.55-6.7-5.82-11.26-.21-3.46-.08-6.94-.08-10.41 0-7.88.06-15.22-.04-23.1-.03-2.08.73-2.7 2.89-2.43 1.08.14 2.18.19 3.26.05 2.37-.32 3.22.31 3.21 2.41-.07 10.41-.08 19.01.01 29.42.02 1.95.26 4.06 1.06 5.79 1.4 3.05 4.61 3.27 7.42 3.37 3.74.17 9.87-1.66 14.51-7.67.12-.16.78-.96 1.27-1.52.23-.26.56-.41.9-.39.58.02 1.79.02 2.4.04zm447.85 13.91c-6.68 0-9.84.22-16.52.34-1.97.03-4.92.23-7.8.23-.69.07-1.86-.28-2.49-.96-.7-.77-.71-2.24.73-3.11.85-.51 1.98-.51 3.9-.48 5.27.06 5.75.13 11.02.23 3.11 0 4.09-1.25 4.09-5.06-.06-10.02-.02-13.19-.03-23.2 0-2.6-1.26-4.12-3.89-4.2-3.67-.11-4.8.11-8.14 1.02-2.1.57-4.76-.11-4.97-2.32 0-2.26 3.46-2.75 5.59-2.49 4.18.51 16.91.14 27.46.11 3.45-.01 7.45-.76 9.67-.76 3.51 0 4 4.43-2.84 4.43-4.67 0-7.67.11-9.49.11-2.35 0-2.98 2.31-2.99 4.58-.02 10.02 0 12.45-.02 22.47 0 3.31.41 4.99 2.92 4.99h8.3c3.2 0 4.22-1.07 5.8-1.07 2.88 0 2.58 2.89 2.32 3.67-.17.51-.85 1.47-3.12 1.47h-19.53zm-350.17 5.32c-1.17.72-4.12.35-5-.7-1.12-1.34-2.12-2.46-3.33-4.03-5.61-7.3-10.29-12.06-18.42-16.31-1.16-.61-3.62-1.83-4.56-2.72-2.1-1.99-2.15-5.54.23-7.19 2.59-1.79 5.94-3.56 8.72-5.17 6.64-3.86 9.92-6.33 14.11-13.29.44-.73 1.18-1.21 2.03-1.27 2.86-.19 6.69-.04 9.56 0 1.41.02 2.44 1.98 1.49 3.51-4.05 6.5-8.71 9.55-15.94 13.16-5.1 2.55-10.56 4.45-13.38 5.4-.4.14-2.09.62-2.01 1.73-.03.53 1.04 1 1.87 1.14 3.31.56 10.88 4.19 17.36 7.24 5.44 2.56 9.19 5.36 12.98 10.17 1.4 1.49.89 3.55-.7 4.82-1.75 1.4-3.02 2.28-5 3.51zm500.98-12.62c11.33-2.97 26.04-8.04 37.06-19.66 1.25-1.32 2.86-1.62 3.25-.39 0 .01.71 2.4-2.2 6.85-3.89 5.84-9.1 11.74-17.3 16.33-4.61 2.59-5.81 3-10.63 5.21-1.45.66-2.58 1.19-4.31 1.81-2.05.73-5.35.21-5.98-1.53-.7-1.3-1.34-2.94-1.95-4.65s.35-3.52 2.07-3.97zm-2.1-31.97c.11-.78.77-1.35 1.56-1.41 1.7-.12 3.59-.08 5.43.44 4.04 1.14 7.7 2.35 10.7 5.49.57.59 3.08 3.02 1.76 5.77-.13.28-.35.51-.6.69-1.23.88-2.69 1.76-3.94 2.58-1.74 1.13-4.8 1.11-5.77-1.11-.9-2.05-2.67-4.57-4.03-6.25-1.84-2.28-2.72-2.84-4.6-4.67-.37-.36-.58-.87-.53-1.38 0-.04.01-.09.02-.13zm-242.36 17.56c1.06-.24 2.48-.52 3.26-.68 3.27-.63 9.14-1.51 12.39-2.22 3.46-.76 5.33-1.12 7.41-1.67 1.76-.46 1.79-1.18 1.01-1.69-1.76-1.16-5.03-3.08-4.91-3.97.19-1.32 4.2-1.17 4.2-2.59 0-4.2.02-5.19.02-9.55 0-1.78.45-2.11 1.63-2.1 2.07.02 5.93.27 8 .2 1.88-.06 1.63.87 1.63 3.78v6.1c0 .53-.01.84.1 1.23.19.63.73 1.09 1.38 1.18.7.11 1.92-.22 2.86-.79 1.23-.74 1.95-.98 3.16-2.19.16-1.73-1.57-3.38-1.77-5.41-.05-.5.22-1.01.68-1.22 1.6-.74 3.32.19 4.42.7 2.55 1.48 5.27 3.35 8.5 7.67.9 1.2.59 2.87.16 3.51-1.05 1.57-2.92 1.46-4.49 2.78-.22.14-2.59 1.02-5.66.02-6.21 4.54-12.42 6.02-14.38 6.48-.57.13-.29 1.07.3 1.07h10.62c2.34 0 4.68-.07 7.01.08 3.04.19 4.45 1.71 4.47 4.78.04 7.14 0 12.13.04 19.27.01 1.61-.67 2.06-2.17 2.06-13.42-.03-28.07-.17-41.48-.11-1.8 0-2.29-.7-2.27-2.38.06-6.87-.04-13.6.07-20.47.03-1.99-.74-1.89-2.11-2.06-.67-.08-3.98.18-4.67.11-.97-.06-1.88-1.32.55-1.94zm29.66 8.06c3.27 0 5.26.02 8.53-.02.63 0 1.85-.51 1.85-1.62 0-1.22-.9-1.95-3.49-1.95-4.94 0-3.48-.08-8.42 0-1.53.02-5.43.1-7.78.1-1.48 0-2.54.74-2.54 1.8 0 1.27 1.28 1.69 2.43 1.69h9.42zm0 7.84c3.27 0 5.26.02 8.53-.02.63 0 1.85-.51 1.85-1.62 0-1.22-.9-1.95-3.49-1.95-4.94 0-3.48-.08-8.42 0-1.53.02-5.43.1-7.78.1-1.48 0-2.54.74-2.54 1.8 0 1.27 1.28 1.69 2.43 1.69h9.42zm0 7.31c3.27 0 5.26.02 8.53-.02.63 0 1.85-.51 1.85-1.62 0-1.22-.84-1.95-3.49-1.95-4.94 0-3.48-.08-8.42 0-1.53.02-5.43.1-7.78.1-1.48 0-2.54.74-2.54 1.8 0 1.27 1.28 1.69 2.43 1.69h9.42z"/><path class="cls-1" d="M405.27 109.91h.8c4.91-.1 4.45 1.22 3 5.57-.93 3.73-4.21 6.93-8.13 9.49-.72.34-2.35 1.79-3.92 1.68-.82-.06-1.34-.54-1.74-1.11-.26-.36-.38-.81-.33-1.26.05-.48.1-.99.33-1.33.69-.98 1.37-1.98 1.65-3.15.75-3.14.68-4.72.81-6.4 0-3.31 1.36-3.5 5.12-3.5h2.4zm374.02 20.39l-24.17.12c-.22 0-.43-.01-.65-.04-.98-.14-4.17-.56-7-.46-3.4.13-5.42 1.76-5.42 3.65s1.13 4.28 3.78 4.28 3.02-.76 16.38-.76h26.33s5.17-.63 4.91-3.91c-.25-3.28-2.52-3.4-4.66-3.4-1.94 0-8.04.42-9.15.49-.12 0-.24.01-.36.01z"/></g></svg>